<?xml version="1.0" encoding="UTF-8" standalone="no"?> <!-- Created with Vectornator for iOS (http://vectornator.io/) --><!DOCTYPE svg PUBLIC "-//W3C//DTD SVG 1.1//EN" "http://www.w3.org/Graphics/SVG/1.1/DTD/svg11.dtd">
<svg height="100%" style="fill-rule:nonzero;clip-rule:evenodd;stroke-linecap:round;stroke-linejoin:round;" xmlns:xlink="http://www.w3.org/1999/xlink" xmlns="http://www.w3.org/2000/svg" xml:space="preserve" width="100%" xmlns:vectornator="http://vectornator.io" version="1.1" viewBox="0 0 2400 2400">
<metadata>
<vectornator:setting key="DimensionsVisible" value="1"/>
<vectornator:setting key="PencilOnly" value="0"/>
<vectornator:setting key="SnapToPoints" value="0"/>
<vectornator:setting key="GuidesVisible" value="1"/>
<vectornator:setting key="RulersVisible" value="1"/>
<vectornator:setting key="CMYKEnabledKey" value="0"/>
<vectornator:setting key="SnapToEdges" value="0"/>
<vectornator:setting key="OutlineMode" value="0"/>
<vectornator:setting key="DisplayWhiteBackground" value="0"/>
<vectornator:setting key="doHistoryDisabled" value="0"/>
<vectornator:setting key="SnapToGuides" value="1"/>
<vectornator:setting key="TimeLapseWatermarkDisabled" value="0"/>
<vectornator:setting key="Units" value="Pixels"/>
<vectornator:setting key="IsolateActiveLayer" value="0"/>
<vectornator:setting key="SnapToGrid" value="0"/>
<vectornator:setting key="DynamicGuides" value="0"/>
</metadata>
<defs/>
<g id="Layer 1" vectornator:layerName="Layer 1">
<g opacity="1">
<path d="M1175.66+41.9423L1194.66+41.9423C1826.92+41.9423+2339.47+554.492+2339.47+1186.75L2339.47+1186.75C2339.47+1819.02+1826.92+2331.57+1194.66+2331.57L1175.66+2331.57C543.394+2331.57+30.8441+1819.02+30.8441+1186.75L30.8441+1186.75C30.8441+554.492+543.394+41.9423+1175.66+41.9423Z" opacity="1" fill="#d0f4f9"/>
<path d="M1695.85+461.868C1761.49+402.538+1695.85+461.868+1695.85+461.868C1827.8+398.99+1919.81+415.881+2048.61+586.931C2326.63+956.136+2223.21+1136.75+2223.21+1136.75C2151.13+1171.1+2010.88+967.494+1852.87+880.029C1694.87+792.564+1564.47+580.626+1695.85+461.868Z" opacity="1" fill="#ffffff"/>
<path d="M1371.98+251.492L1371.98+251.492C1447.68+251.492+1509.04+312.857+1509.04+388.555L1509.04+388.555C1509.04+464.253+1447.68+525.619+1371.98+525.619L1371.98+525.619C1296.28+525.619+1234.91+464.253+1234.91+388.555L1234.91+388.555C1234.91+312.857+1296.28+251.492+1371.98+251.492Z" opacity="1" fill="#ffffff"/>
</g>
</g>
</svg>
