<?xml version="1.0" encoding="UTF-8" standalone="no"?> <!-- Created with Vectornator for iOS (http://vectornator.io/) --><!DOCTYPE svg PUBLIC "-//W3C//DTD SVG 1.1//EN" "http://www.w3.org/Graphics/SVG/1.1/DTD/svg11.dtd">
<svg style="fill-rule:nonzero;clip-rule:evenodd;stroke-linecap:round;stroke-linejoin:round;" xmlns:vectornator="http://vectornator.io" xmlns:xlink="http://www.w3.org/1999/xlink" xmlns="http://www.w3.org/2000/svg" xml:space="preserve" version="1.1" viewBox="0 0 780 780">
<metadata>
<vectornator:setting key="DimensionsVisible" value="1"/>
<vectornator:setting key="PencilOnly" value="0"/>
<vectornator:setting key="SnapToPoints" value="0"/>
<vectornator:setting key="GuidesVisible" value="1"/>
<vectornator:setting key="RulersVisible" value="1"/>
<vectornator:setting key="CMYKEnabledKey" value="0"/>
<vectornator:setting key="SnapToEdges" value="0"/>
<vectornator:setting key="OutlineMode" value="0"/>
<vectornator:setting key="DisplayWhiteBackground" value="0"/>
<vectornator:setting key="doHistoryDisabled" value="0"/>
<vectornator:setting key="SnapToGuides" value="1"/>
<vectornator:setting key="TimeLapseWatermarkDisabled" value="0"/>
<vectornator:setting key="Units" value="Pixels"/>
<vectornator:setting key="SnapToGrid" value="0"/>
<vectornator:setting key="DynamicGuides" value="0"/>
<vectornator:setting key="IsolateActiveLayer" value="0"/>
</metadata>
<defs>
<linearGradient y1="526.232" id="LinearGradient" x1="691.173" y2="564.975" x2="728.615" gradientUnits="userSpaceOnUse" gradientTransform="matrix(0.975628 -0.21943 0.21943 0.975628 -505.011 265.446)">
<stop stop-color="#d69350" offset="0"/>
<stop stop-color="#d68050" offset="1"/>
</linearGradient>
<linearGradient y1="485.607" id="LinearGradient_2" x1="726.49" y2="526.836" x2="769.256" gradientUnits="userSpaceOnUse" gradientTransform="matrix(0.975628 -0.21943 0.21943 0.975628 -505.011 265.446)">
<stop stop-color="#d69350" offset="0"/>
<stop stop-color="#d68050" offset="1"/>
</linearGradient>
<linearGradient y1="457.148" id="LinearGradient_3" x1="770.312" y2="495.919" x2="814.198" gradientUnits="userSpaceOnUse" gradientTransform="matrix(0.975628 -0.21943 0.21943 0.975628 -505.011 265.446)">
<stop stop-color="#d69350" offset="0"/>
<stop stop-color="#d68050" offset="1"/>
</linearGradient>
</defs>
<g id="Layer 1" vectornator:layerName="Layer 1" visibility="hidden">
<g opacity="1">
<g opacity="1">
<path d="M383.823+94.5758C382.571+94.1157+381.345+93.9222+380.214+94.1354C378.517+94.4551+375.89+104.166+375.89+104.166C375.89+104.166+370.059+102.908+369.127+104.982C365.18+113.77+367.589+123.698+367.589+123.698C367.589+123.698+351.109+130.711+353.041+140.534C353.042+140.534+357.547+155.527+364.006+175.607C358.827+171.575+351.445+176.264+351.445+176.264C351.445+176.264+336.492+165.485+332.207+169.967C331.404+170.807+333.144+178.493+333.144+178.493C333.145+178.493+329.636+179.751+329.811+181.538C330.552+189.11+335.04+195.194+335.04+195.194C335.04+195.194+328.508+206.058+332.729+212.214C332.729+212.214+396.877+290.711+416.387+299.444C418.043+300.785+419.596+301.604+420.98+301.343C421.668+301.213+422.301+300.81+422.898+300.274C423.935+307.265+425.63+312.119+428.444+313.221C430.615+314.071+433.347+312.621+436.386+309.733C436.453+310.018+436.478+310.315+436.655+310.565C445.646+323.325+596.431+284.754+596.431+284.754C606.454+281.336+601.775+269.29+601.775+269.29C601.775+269.29+618.498+255.988+614.288+250.014C613.499+248.894+603.861+248.57+603.861+248.57C603.861+248.57+603.286+244.363+601.116+244.045C591.921+242.7+583.546+245.931+583.546+245.931C583.546+245.931+573.108+236.504+564.814+238.376C579.414+228.093+591.138+219.407+591.138+219.407C596.016+214.348+576.036+209.156+576.036+209.156C576.036+209.156+574.312+196.521+562.644+194.537C560.457+194.165+551.083+197.052+551.083+197.052C551.083+197.052+545.112+194.885+542.683+195.394C542.111+195.514+541.768+195.686+541.237+195.819C541.217+195.812+540.928+195.689+540.928+195.689C540.928+195.689+535.014+175.681+520.815+172.121C518.154+171.454+508.131+175.635+508.131+175.635C508.131+175.635+505.413+174.416+502.64+173.528C503.175+172.123+505.235+166.802+505.235+166.802C508.194+155.631+492.719+145.802+492.719+145.802C492.719+145.802+489.806+118.787+480.902+115.301C479.233+114.648+472.654+121.4+472.654+121.4C472.654+121.4+467.957+117.208+466.223+118.459C458.876+123.762+456.755+133.502+456.755+133.502C456.755+133.502+438.891+130.448+436.404+139.833C436.404+139.833+432.269+165.447+428.382+196.849C426.284+160.013+423.089+127.346+423.089+127.346C420.788+115.654+403.43+115.246+403.43+115.246C403.43+115.246+392.593+97.7964+383.823+94.5758Z" opacity="1" fill="#98c97b"/>
<path d="" opacity="1" fill="none"/>
</g>
<g opacity="1">
<path d="M408.087+196.494C407.409+196.243+406.745+196.136+406.133+196.252C405.215+196.424+403.801+201.71+403.801+201.71C403.801+201.71+400.644+201.021+400.142+202.149C398.012+206.931+399.324+212.339+399.324+212.339C399.324+212.339+390.41+216.145+391.464+221.496C391.464+221.496+393.914+229.663+397.426+240.602C394.62+238.402+390.628+240.95+390.628+240.95C390.628+240.95+382.527+235.069+380.212+237.506C379.778+237.963+380.726+242.149+380.726+242.149C380.726+242.149+378.828+242.832+378.924+243.805C379.331+247.928+381.765+251.245+381.765+251.245C381.765+251.245+378.239+257.155+380.528+260.511C380.528+260.511+415.306+303.305+425.872+308.076C426.769+308.807+427.61+309.254+428.359+309.113C428.731+309.043+429.073+308.824+429.396+308.533C429.963+312.34+430.884+314.985+432.408+315.587C433.584+316.051+435.061+315.264+436.703+313.694C436.739+313.849+436.754+314.011+436.849+314.147C441.726+321.103+523.299+300.218+523.299+300.218C528.721+298.365+526.179+291.802+526.179+291.802C526.179+291.802+535.219+284.572+532.936+281.316C532.508+280.705+527.292+280.521+527.292+280.521C527.292+280.521+526.977+278.23+525.802+278.055C520.825+277.315+516.295+279.068+516.295+279.068C516.295+279.068+510.639+273.927+506.151+274.94C514.045+269.352+520.383+264.631+520.383+264.631C523.019+261.88+512.202+259.037+512.202+259.037C512.202+259.037+511.259+252.156+504.943+251.066C503.759+250.862+498.688+252.427+498.688+252.427C498.688+252.427+495.455+251.242+494.141+251.517C493.831+251.582+493.645+251.676+493.358+251.748C493.347+251.744+493.191+251.677+493.191+251.677C493.191+251.677+489.975+240.777+482.287+238.828C480.846+238.462+475.425+240.731+475.425+240.731C475.425+240.731+473.954+240.065+472.452+239.579C472.741+238.815+473.851+235.919+473.851+235.919C475.444+229.838+467.061+224.474+467.061+224.474C467.061+224.474+465.463+209.761+460.642+207.856C459.738+207.499+456.183+211.171+456.183+211.171C456.183+211.171+453.637+208.884+452.7+209.564C448.728+212.446+447.588+217.748+447.588+217.748C447.588+217.748+437.917+216.071+436.579+221.179C436.579+221.179+434.361+235.123+432.283+252.22C431.118+232.16+429.363+214.37+429.363+214.37C428.109+208.001+418.714+207.765+418.714+207.765C418.714+207.765+412.836+198.255+408.087+196.494Z" opacity="1" fill="#84b468"/>
<path d="" opacity="1" fill="none"/>
</g>
<g opacity="1">
<path d="M435.63+264.663L440.331+265.994C505.899+284.559+544.002+352.763+525.437+418.33L525.437+418.33C506.872+483.898+300.49+719.765+254.857+687.06C203.719+650.41+264.729+415.336+283.294+349.769L283.294+349.769C301.859+284.201+370.062+246.098+435.63+264.663Z" opacity="1" fill="#e0a163"/>
<path/>
</g>
<path d="M491.108+420.016C549.398+314.095+440.331+265.994+440.331+265.994C472.179+275.012+497.548+295.741+513.089+322.19C529.545+350.194+534.985+384.61+525.437+418.33L525.437+418.33C506.872+483.898+300.49+719.765+254.857+687.06C250.509+683.944+351.235+674.179+491.108+420.016Z" opacity="1" fill="#d68050"/>
<g opacity="1">
<path d="M438.265+379.121L438.265+379.121C447.78+383.569+451.887+394.888+447.438+404.403L444.898+409.835C440.45+419.35+429.131+423.457+419.616+419.008L419.616+419.008C410.102+414.56+405.995+403.241+410.444+393.726L412.984+388.294C417.432+378.779+428.751+374.672+438.265+379.121Z" opacity="1" fill="#726b64"/>
<path/>
</g>
<g opacity="1">
<path d="M341.444+342.308L341.444+342.308C350.959+346.756+355.066+358.075+350.617+367.59L348.077+373.023C343.629+382.537+332.31+386.644+322.795+382.195L322.795+382.195C313.281+377.747+309.174+366.428+313.623+356.914L316.163+351.481C320.611+341.966+331.93+337.859+341.444+342.308Z" opacity="1" fill="#726b64"/>
<path/>
</g>
<g opacity="1">
<path d="M343.921+353.346L343.921+353.346C345.25+353.047+346.57+353.882+346.869+355.212L347.018+355.871C347.317+357.201+346.481+358.521+345.152+358.82L345.152+358.82C343.823+359.119+342.503+358.283+342.204+356.954L342.055+356.294C341.756+354.965+342.592+353.645+343.921+353.346Z" opacity="1" fill="#ffffff"/>
<path/>
</g>
<g opacity="1">
<path d="M442.002+391.176L442.002+391.176C443.331+390.877+444.651+391.712+444.95+393.042L445.098+393.701C445.397+395.031+444.562+396.351+443.233+396.65L443.233+396.65C441.903+396.949+440.583+396.113+440.284+394.784L440.136+394.124C439.837+392.795+440.672+391.475+442.002+391.176Z" opacity="1" fill="#ffffff"/>
<path/>
</g>
<path d="M316.951+657.913C316.951+657.913+267.11+624.517+263.394+613.924C259.677+603.331+329.323+646.213+329.323+646.213L316.951+657.913Z" opacity="1" fill="url(#LinearGradient)"/>
<path d="M360.095+617.853C360.095+617.853+284.15+567.916+288.876+565.704C293.601+563.493+372.624+609.41+372.624+609.41L360.095+617.853Z" opacity="1" fill="url(#LinearGradient_2)"/>
<path d="M398.153+578.992C398.153+578.992+306.268+523.539+313.081+522.422C319.894+521.304+405.832+564.982+405.832+564.982L398.153+578.992Z" opacity="1" fill="url(#LinearGradient_3)"/>
<path d="M329.152+428.872C329.152+428.872+348.678+419.047+356.867+422.52C365.056+425.992+369.691+442.739+369.691+442.739L329.152+428.872Z" opacity="1" fill="#c15e64"/>
</g>
</g>
<g id="Layer 2" vectornator:layerName="Layer 2">
<g opacity="1">
<path stroke="#388dcf" stroke-width="12" d="M390+46.4932L390+46.4932C579.05+46.4932+732.305+195.823+732.305+380.031L732.305+399.969C732.305+584.177+579.05+733.507+390+733.507L390+733.507C200.95+733.507+47.6949+584.177+47.6949+399.969L47.6949+380.031C47.6949+195.823+200.95+46.4932+390+46.4932Z" fill="#9fcff4" stroke-linecap="round" opacity="0.450194" stroke-linejoin="round"/>
<path d="M526.466+150.117C549.897+110.898+601.021+179.532+627.33+223.478C678.674+309.241+667.033+385.599+667.033+385.599C667.033+385.599+645.915+315.861+608.522+261.934C571.13+208.006+510.173+177.388+526.466+150.117Z" opacity="1" fill="#ffffff"/>
<path d="M681.028+409.041L681.028+409.041C692.992+409.041+702.691+418.4+702.691+429.946L702.691+430.443C702.691+441.989+692.992+451.348+681.028+451.348L681.028+451.348C669.064+451.348+659.365+441.989+659.365+430.443L659.365+429.946C659.365+418.4+669.064+409.041+681.028+409.041Z" opacity="1" fill="#ffffff"/>
</g>
</g>
</svg>
