<?xml version="1.0" encoding="UTF-8" standalone="no"?> <!-- Created with Vectornator for iOS (http://vectornator.io/) --><!DOCTYPE svg PUBLIC "-//W3C//DTD SVG 1.1//EN" "http://www.w3.org/Graphics/SVG/1.1/DTD/svg11.dtd">
<svg height="100%" style="fill-rule:nonzero;clip-rule:evenodd;stroke-linecap:round;stroke-linejoin:round;" xmlns:xlink="http://www.w3.org/1999/xlink" xmlns="http://www.w3.org/2000/svg" xml:space="preserve" width="100%" xmlns:vectornator="http://vectornator.io" version="1.1" viewBox="0 0 500 500">
<metadata>
<vectornator:setting key="DimensionsVisible" value="1"/>
<vectornator:setting key="PencilOnly" value="0"/>
<vectornator:setting key="SnapToPoints" value="0"/>
<vectornator:setting key="GuidesVisible" value="1"/>
<vectornator:setting key="CMYKEnabledKey" value="0"/>
<vectornator:setting key="RulersVisible" value="1"/>
<vectornator:setting key="OutlineMode" value="0"/>
<vectornator:setting key="SnapToEdges" value="0"/>
<vectornator:setting key="DisplayWhiteBackground" value="0"/>
<vectornator:setting key="doHistoryDisabled" value="0"/>
<vectornator:setting key="TimeLapseWatermarkDisabled" value="0"/>
<vectornator:setting key="SnapToGuides" value="1"/>
<vectornator:setting key="Units" value="Pixels"/>
<vectornator:setting key="IsolateActiveLayer" value="0"/>
<vectornator:setting key="DynamicGuides" value="0"/>
<vectornator:setting key="SnapToGrid" value="0"/>
</metadata>
<defs>
<linearGradient y1="749.109" id="LinearGradient" x1="546.912" y2="748.4" x2="759.374" gradientUnits="userSpaceOnUse" gradientTransform="matrix(1.82448 0 0 1.96584 -914.348 -935.259)">
<stop stop-color="#e0a163" offset="0"/>
<stop stop-color="#d68050" offset="1"/>
</linearGradient>
</defs>
<g id="Layer 1" vectornator:layerName="Layer 1">
<g opacity="1">
<path d="M45.731+130.948C43.5589+130.972+41.5829+131.387+39.9847+132.366C37.5883+133.833+39.2093+150.126+39.2093+150.126C39.2094+150.126+29.6109+151.585+29.3931+155.279C28.4705+170.932+37.8794+184.642+37.8794+184.642C37.8793+184.642+16.8637+204.845+25.4865+218.671C25.4866+218.671+41.0127+238.874+62.4553+265.685C52.2431+262.547+43.7253+273.95+43.7253+273.95C43.7253+273.95+14.7414+266.202+10.8158+275.499C10.0802+277.242+17.174+287.928+17.174+287.928C17.1742+287.928+12.5639+291.872+13.8638+294.489C19.3714+305.578+29.7179+312.239+29.7179+312.239C29.7179+312.239+26.0657+332.544+36.0478+339.469C36.0481+339.469+179.044+421.781+213.777+423.782C217.072+424.863+219.908+425.211+221.863+424.013C222.834+423.419+223.564+422.438+224.162+421.278C229.784+431.314+235.17+437.718+240.088+437.766C243.884+437.803+247.201+434.017+250.153+427.866C250.42+428.261+250.63+428.698+251.043+428.976C272.104+443.188+479.184+297.286+479.184+297.286C492.456+286.289+478.368+270.67+478.368+270.67C478.368+270.67+496.116+240.76+486.255+234.106C484.407+232.859+469.557+237.941+469.557+237.941C469.557+237.941+466.248+231.874+462.763+232.646C447.996+235.918+437.124+245.677+437.124+245.677C437.124+245.677+415.791+237.374+404.257+245.02C420.52+220.931+433.331+200.934+433.331+200.934C437.826+190.417+404.427+194.075+404.427+194.075C404.427+194.075+394.495+175.851+375.597+179.582C372.055+180.281+359.464+190.096+359.464+190.096C359.464+190.096+349.127+190.253+345.726+192.432C344.926+192.945+344.503+193.406+343.771+193.915C343.737+193.915+343.227+193.896+343.227+193.896C343.227+193.896+322.656+166.877+298.995+169.676C294.561+170.201+281.731+182.359+281.731+182.359C281.731+182.359+276.891+182.076+272.159+182.329C272.161+179.883+272.216+170.596+272.216+170.596C270.257+151.89+241.029+145.888+241.029+145.888C241.029+145.888+220.969+106.475+205.407+106.323C202.491+106.294+196.387+120.372+196.387+120.372C196.387+120.372+186.816+116.711+184.903+119.618C176.793+131.935+179.2+147.979+179.2+147.979C179.2+147.979+150.256+153.666+151.902+169.383C151.902+169.383+160.428+210.741+172.68+260.763C148.18+205.938+124.422+158.089+124.422+158.089C114.159+141.632+87.5151+151.052+87.5151+151.052C87.5149+151.052+60.9353+130.774+45.731+130.948Z" opacity="1" fill="#98c97b"/>
<path d="" opacity="1" fill="none"/>
</g>
<g opacity="1">
<path d="M139.042+271.963C137.864+271.973+136.793+272.195+135.929+272.724C134.632+273.518+135.538+282.377+135.538+282.377C135.538+282.377+130.337+283.154+130.225+285.162C129.752+293.669+134.876+301.137+134.876+301.137C134.876+301.137+123.517+312.083+128.215+319.613C128.215+319.613+136.666+330.622+148.337+345.232C142.795+343.509+138.196+349.693+138.196+349.693C138.197+349.693+122.47+345.432+120.358+350.479C119.962+351.425+123.826+357.246+123.826+357.246C123.826+357.246+121.333+359.382+122.042+360.807C125.047+366.844+130.667+370.482+130.667+370.482C130.667+370.482+128.722+381.514+134.145+385.295C134.145+385.295+211.809+430.28+230.642+431.426C232.431+432.02+233.968+432.214+235.026+431.566C235.552+431.244+235.946+430.713+236.268+430.083C239.333+435.548+242.264+439.038+244.93+439.073C246.988+439.099+248.78+437.047+250.37+433.708C250.515+433.924+250.63+434.161+250.854+434.313C262.296+442.074+374.315+363.116+374.315+363.116C381.492+357.16+373.828+348.646+373.828+348.646C373.828+348.646+383.399+332.418+378.042+328.785C377.038+328.104+368.995+330.841+368.995+330.841C368.995+330.841+367.191+327.537+365.303+327.951C357.303+329.705+351.426+334.991+351.426+334.991C351.426+334.991+339.846+330.441+333.606+334.578C342.382+321.512+349.294+310.663+349.294+310.663C351.713+304.954+333.612+306.886+333.612+306.886C333.612+306.886+328.197+296.963+317.957+298.959C316.038+299.333+309.229+304.646+309.229+304.646C309.229+304.646+303.625+304.714+301.785+305.893C301.352+306.171+301.123+306.42+300.728+306.696C300.709+306.696+300.432+306.685+300.432+306.685C300.432+306.685+289.234+291.963+276.412+293.444C274.009+293.722+267.073+300.309+267.073+300.309C267.074+300.309+264.449+300.147+261.884+300.277C261.881+298.947+261.895+293.899+261.895+293.899C260.801+283.727+244.945+280.415+244.945+280.415C244.945+280.415+234.003+258.957+225.567+258.848C223.986+258.828+220.7+266.47+220.7+266.47C220.7+266.47+215.505+264.463+214.473+266.04C210.097+272.722+211.429+281.447+211.429+281.447C211.429+281.447+195.747+284.49+196.666+293.036C196.666+293.036+201.358+315.532+208.085+342.743C194.71+312.9+181.749+286.85+181.749+286.85C176.157+277.887+161.728+282.962+161.728+282.962C161.728+282.962+147.284+271.895+139.042+271.963Z" opacity="1" fill="#84b468"/>
<path d="" opacity="1" fill="none"/>
</g>
<g opacity="1">
<path d="M81.13+535.707L81.13+535.707C81.13+440.01+153.129+362.432+241.944+362.432L258.056+362.432C346.871+362.432+418.87+440.01+418.87+535.707L81.13+535.707Z" opacity="1" fill="url(#LinearGradient)"/>
<path/>
</g>
</g>
</svg>
