<?xml version="1.0" encoding="UTF-8" standalone="no"?> <!-- Created with Vectornator for iOS (http://vectornator.io/) --><!DOCTYPE svg PUBLIC "-//W3C//DTD SVG 1.1//EN" "http://www.w3.org/Graphics/SVG/1.1/DTD/svg11.dtd">
<svg height="100%" style="fill-rule:nonzero;clip-rule:evenodd;stroke-linecap:round;stroke-linejoin:round;" xmlns:xlink="http://www.w3.org/1999/xlink" xmlns="http://www.w3.org/2000/svg" xml:space="preserve" width="100%" xmlns:vectornator="http://vectornator.io" version="1.1" viewBox="0 0 780 780">
<metadata>
<vectornator:setting key="DimensionsVisible" value="1"/>
<vectornator:setting key="PencilOnly" value="0"/>
<vectornator:setting key="SnapToPoints" value="0"/>
<vectornator:setting key="OutlineMode" value="0"/>
<vectornator:setting key="CMYKEnabledKey" value="0"/>
<vectornator:setting key="GuidesVisible" value="1"/>
<vectornator:setting key="RulersVisible" value="1"/>
<vectornator:setting key="SnapToEdges" value="0"/>
<vectornator:setting key="DisplayWhiteBackground" value="0"/>
<vectornator:setting key="doHistoryDisabled" value="0"/>
<vectornator:setting key="SnapToGuides" value="1"/>
<vectornator:setting key="TimeLapseWatermarkDisabled" value="0"/>
<vectornator:setting key="DynamicGuides" value="0"/>
<vectornator:setting key="Units" value="Pixels"/>
<vectornator:setting key="SnapToGrid" value="0"/>
<vectornator:setting key="IsolateActiveLayer" value="0"/>
</metadata>
<defs/>
<g id="Layer 1" vectornator:layerName="Layer 1">
<path d="M170.071+379.992L609.929+379.992C617.567+379.992+623.759+386.141+623.759+393.725L623.759+692.363C623.759+699.948+617.567+706.096+609.929+706.096L170.071+706.096C162.433+706.096+156.241+699.948+156.241+692.363L156.241+393.725C156.241+386.141+162.433+379.992+170.071+379.992Z" opacity="1" fill="#d68050"/>
<path d="M196.185+389.529L493.082+389.529C493.711+389.529+494.22+390.039+494.22+390.667L494.22+466.14C494.22+466.769+493.711+467.278+493.082+467.278L196.185+467.278C195.556+467.278+195.047+466.769+195.047+466.14L195.047+390.667C195.047+390.039+195.556+389.529+196.185+389.529Z" opacity="1" fill="#ecccba"/>
<path d="M256.125+413.844C248.928+416.77+241.897+420.762+234.031+421.469C232.614+421.595+231.593+422.864+231.719+424.281C231.845+425.698+233.083+426.72+234.5+426.594C242.926+425.851+250.424+421.974+258.156+418.875C259.55+418.312+260.219+416.737+259.656+415.344C259.094+413.95+257.518+413.281+256.125+413.844Z" opacity="1" fill="#278d9c"/>
<path d="M244.656+405.625C243.239+405.747+242.191+406.989+242.312+408.406C243.255+419.496+245.033+430.5+245.938+441.594C246.062+443.091+247.378+444.187+248.875+444.062C250.372+443.938+251.5+442.622+251.375+441.125C251.057+437.387+250.7+433.659+250.219+429.938C249.271+422.607+248.108+415.337+247.469+407.969C247.347+406.551+246.074+405.503+244.656+405.625Z" opacity="1" fill="#278d9c"/>
<path d="M270.25+417.781C269.057+417.693+267.875+417.753+266.875+417.906C266.106+418.024+265.358+418.209+264.625+418.469C259.716+420.204+257.021+424.562+256.375+429.344C256.36+429.371+256.327+429.378+256.312+429.406C255.958+430.105+256.003+430.86+256.281+431.531C256.256+435.556+257.543+439.644+260.219+442.562C261.271+443.711+262.669+444.592+264.031+445.312C265.587+446.135+267.307+446.834+269.094+446.844C273.266+446.866+276.394+443.99+279.438+441.531C280.605+440.586+280.789+438.855+279.844+437.688C278.898+436.52+277.199+436.336+276.031+437.281C274.019+438.913+271.844+441.327+269.062+441.438C268.142+441.474+266.767+440.635+266+440.188C265.372+439.821+264.7+439.432+264.188+438.906C263.563+438.266+263.072+437.362+262.688+436.562C262.363+435.888+262.13+435.17+261.938+434.438C262.117+434.47+262.287+434.538+262.469+434.562C267.068+435.175+271.313+432.813+274.312+429.469C275.749+427.866+277.086+425.892+277.25+423.688C277.553+419.625+273.829+418.046+270.25+417.781ZM269.188+423C269.987+423.015+270.784+423.133+271.562+423.312C271.736+423.353+271.877+423.375+272.031+423.438C271.987+423.598+271.941+423.754+271.875+423.906C271.704+424.3+271.488+424.643+271.25+425C269.531+427.577+266.381+429.869+263.156+429.438C262.701+429.377+262.305+429.136+261.875+429C262.038+428.322+262.222+427.662+262.531+427.031C263.803+424.435+266.305+422.945+269.188+423Z" opacity="1" fill="#278d9c"/>
<path d="M283+422.281C282.341+422.312+281.697+422.599+281.219+423.125C280.262+424.177+280.354+425.793+281.406+426.75C286.515+431.408+290.685+436.903+294.875+442.375C295.792+443.565+297.497+443.792+298.688+442.875C299.878+441.958+300.104+440.253+299.188+439.062C294.771+433.363+290.227+427.793+284.875+422.938C284.349+422.459+283.659+422.25+283+422.281Z" opacity="1" fill="#278d9c"/>
<path d="M294.188+421.625C293.529+421.6+292.866+421.829+292.344+422.312C290.139+424.349+288.008+426.301+286.438+428.906C284.323+432.413+283.322+436.543+281.625+440.25C281.004+441.618+281.632+443.223+283+443.844C284.368+444.465+285.973+443.868+286.594+442.5C287.315+440.896+287.95+439.284+288.531+437.625C289.383+435.193+290.148+432.663+291.594+430.5C292.727+428.805+294.362+427.47+295.844+426.094C296.888+425.127+296.935+423.513+295.969+422.469C295.485+421.947+294.846+421.65+294.188+421.625Z" opacity="1" fill="#278d9c"/>
<path d="M317.188+415.438C311.138+416.059+305.116+416.804+299.25+418.469C297.881+418.855+297.082+420.256+297.469+421.625C297.855+422.994+299.287+423.793+300.656+423.406C306.226+421.843+311.981+421.425+317.719+420.875C319.214+420.727+320.305+419.37+320.156+417.875C320.008+416.38+318.683+415.289+317.188+415.438Z" opacity="1" fill="#278d9c"/>
<path d="M308.219+400.562C306.803+400.425+305.544+401.459+305.406+402.875C304.173+415.493+305.78+428.121+305.906+440.75C305.924+442.253+307.154+443.455+308.656+443.438C310.159+443.42+311.361+442.19+311.344+440.688C311.179+428.25+309.334+415.804+310.531+403.375C310.669+401.959+309.635+400.7+308.219+400.562Z" opacity="1" fill="#278d9c"/>
<path d="M325.938+401.219C324.527+401.037+323.245+402.027+323.062+403.438C321.502+415.449+321.629+427.458+322.25+439.531C322.33+441.032+323.624+442.205+325.125+442.125C326.626+442.045+327.767+440.751+327.688+439.25C327.041+427.471+326.683+415.827+328.188+404.094C328.37+402.683+327.348+401.401+325.938+401.219Z" opacity="1" fill="#278d9c"/>
<path d="M332.031+419.656C328.488+419.359+324.937+419.955+322.219+422.5C321.182+423.475+321.119+425.089+322.094+426.125C323.068+427.161+324.714+427.225+325.75+426.25C327.659+424.444+330.408+424.592+332.844+424.969C333.864+425.126+334.869+425.342+335.844+425.688C336.978+426.089+338.371+426.74+338.812+427.969C339.608+430.184+337.778+433.268+336.375+434.844C335.548+435.772+334.508+436.495+333.375+437C332.481+437.398+331.505+437.869+330.531+438.031C329.517+438.2+328.46+438.106+327.438+438.156C325.937+438.233+324.799+439.499+324.875+441C324.951+442.501+326.218+443.67+327.719+443.594C328.968+443.527+330.231+443.594+331.469+443.375C333.276+443.055+335.086+442.289+336.688+441.406C338.774+440.257+340.471+438.616+341.781+436.625C343.879+433.437+345.242+429.14+343.469+425.5C341.977+422.437+338.705+420.925+335.531+420.219C334.383+419.963+333.212+419.755+332.031+419.656Z" opacity="1" fill="#278d9c"/>
<path d="M360.156+416.281C355.762+416.02+351.347+418.999+349.406+423.094C347.464+427.192+347.68+432.757+349.031+437C349.496+438.46+350.125+439.883+351.031+441.125C351.731+442.084+352.62+442.917+353.594+443.594C354.473+444.205+355.439+444.672+356.469+444.969C361.385+446.387+365.857+443.055+368.344+439.062C370.71+435.263+372.093+430.092+370.406+425.75C369.812+424.22+370.408+425.75+369.844+424.562C369.137+423.237+367.513+422.731+366.188+423.438C364.862+424.144+364.356+425.799+365.062+427.125C363.719+424.857+363.162+423.957+363.719+424.844C364.254+425.695+364.719+426.596+365.219+427.469C365.288+427.59+365.399+427.874+365.438+428C366.274+430.706+365.171+433.924+363.75+436.219C362.075+438.924+359.26+441.331+356.25+438.938C355.768+438.554+355.389+438.117+355.062+437.594C353.101+434.448+352.524+428.709+354.094+425.312C355.29+422.723+358.869+420.209+361.625+422C361.735+422.072+361.891+422.144+361.969+422.25C362.586+423.096+361.97+422.252+362.375+422.594C363.465+423.508+365.086+423.34+366+422.25C366.694+421.423+366.601+420.368+366.125+419.469C365.785+419.035+365.482+418.576+365.125+418.156C364.949+417.949+364.665+417.836+364.438+417.688C363.072+416.797+361.621+416.368+360.156+416.281ZM366.125+419.469C366.676+420.173+367.227+420.869+367.75+421.594C368.71+422.925+367.776+421.586+365.688+418.625C365.95+418.845+365.974+419.183+366.125+419.469Z" opacity="1" fill="#278d9c"/>
<path d="M384.781+418.688C382.569+418.948+380.543+420.032+378.906+421.625C374.706+425.714+372.473+433.464+374.906+438.969C377.266+444.308+383.5+447.242+389.125+445.719C390.533+445.337+391.895+444.712+393+443.75C393.629+443.202+394.145+442.546+394.594+441.844C396.206+439.321+396.565+436.108+396.188+433.188C396.075+432.317+396.018+431.419+395.719+430.594C395.186+429.127+395.731+430.575+395.406+429.469C394.979+428.028+393.441+427.229+392+427.656C390.559+428.083+389.761+429.591+390.188+431.031C389.171+428.381+388.819+427.472+389.156+428.375C389.598+429.559+390.038+430.739+390.438+431.938C391.083+433.874+391.171+437.133+390.031+438.938C389.335+440.04+388.06+440.523+386.812+440.688C383.805+441.084+380.642+439.249+379.594+436.375C378.333+432.917+379.985+427.821+382.531+425.312C383.338+424.518+384.399+423.825+385.562+423.75C385.956+423.724+386.337+423.787+386.719+423.875C386.806+423.895+386.914+423.913+387+423.938C387.111+424.101+387.204+424.272+387.312+424.438C387.487+424.703+387.676+424.949+387.844+425.219C387.931+425.36+388.064+425.533+388.125+425.688C388.477+426.584+388.128+425.673+388.156+425.719C388.905+426.928+390.478+427.312+391.688+426.562C392.878+425.825+393.235+424.265+392.531+423.062C393.007+424.121+393.517+425.181+393.969+426.25C394.576+427.688+393.966+426.233+392.531+423C392.526+422.988+392.506+422.981+392.5+422.969C392.185+422.266+391.655+421.557+391.219+420.938C391.066+420.721+390.907+420.499+390.719+420.312C390.401+419.998+390.071+419.668+389.688+419.438C388.974+419.008+387.881+418.838+387.062+418.719C386.296+418.607+385.519+418.601+384.781+418.688Z" opacity="1" fill="#278d9c"/>
<path d="M403.188+402.188C401.77+402.304+400.727+403.551+400.844+404.969C401.524+413.291+402.052+421.616+402.156+429.969C402.219+434.952+401.983+439.958+402.188+444.938C402.258+446.645+402.269+448.699+403.375+450.125C403.831+450.713+404.273+451.133+405+451.406C405.358+451.541+405.742+451.594+406.125+451.594C406.501+451.594+406.892+451.522+407.25+451.406C408.07+451.14+408.69+450.436+409.062+449.688C409.209+449.393+409.278+449.065+409.438+448.781C410.102+447.434+409.535+445.79+408.188+445.125C408.055+445.059+407.918+445.136+407.781+445.094C407.716+443.959+407.595+442.831+407.594+441.688C407.591+439.451+407.58+437.206+407.562+434.969C407.482+424.801+406.811+414.661+405.969+404.531C405.852+403.113+404.605+402.071+403.188+402.188Z" opacity="1" fill="#278d9c"/>
<path d="M420.594+420.969C419.935+421.004+419.288+421.315+418.812+421.844C416.934+423.933+414.923+425.83+412.5+427.281C411.332+427.981+410.089+428.503+408.844+429.031C408.771+429.029+408.697+429.001+408.625+429C408.501+428.998+408.374+428.993+408.25+429C407.972+429.017+407.67+429.006+407.406+429.094C406.887+429.266+406.351+429.423+405.938+429.781C405.517+430.145+405.197+430.668+405+431.188C404.835+431.623+404.841+432.098+404.875+432.562C404.9+432.909+405.041+433.248+405.188+433.562C405.709+434.681+406.773+435.095+407.812+435.562C408.237+435.753+408.66+436.081+409.062+436.312C411.17+437.523+413.083+438.99+414.938+440.562C417.457+442.699+419.718+445.034+421.562+447.781C422.403+449.027+424.098+449.372+425.344+448.531C426.589+447.691+426.934+445.995+426.094+444.75C424.489+442.385+422.625+440.259+420.531+438.312C418.289+436.228+415.849+434.348+413.25+432.719C416.874+430.866+419.946+428.302+422.656+425.281C423.607+424.223+423.496+422.576+422.438+421.625C421.908+421.15+421.252+420.934+420.594+420.969Z" opacity="1" fill="#278d9c"/>
<path d="M437.688+419.656C437.226+419.633+436.789+419.698+436.344+419.812C435.782+419.957+435.227+420.194+434.719+420.469C431.44+422.239+428.218+425.846+426.938+429.344C426.51+430.511+426.268+431.753+426.344+433C426.385+433.685+426.513+434.387+426.75+435.031C427.857+438.038+430.897+438.717+433.75+439.156C434.994+439.348+436.209+439.451+437.469+439.469C438.246+439.48+438.757+439.468+439.531+439.469C440.438+439.469+441.347+439.469+442.25+439.562C442.728+439.612+443.283+439.72+443.75+439.844C443.961+439.9+444.172+439.95+444.375+440.031C444.601+440.122+444.813+440.236+445.031+440.344C445.103+440.379+445.159+440.446+445.219+440.5C445.228+440.508+445.238+440.516+445.25+440.531C445.2+440.969+444.987+441.36+444.688+441.688C444.433+441.966+444.173+442.233+443.906+442.5C443.645+442.761+443.402+443.005+443.125+443.25C442.351+443.933+441.507+444.543+440.656+445.125C439.422+445.97+438.177+446.793+437+447.719C435.821+448.65+435.631+450.352+436.562+451.531C437.494+452.71+439.196+452.931+440.375+452C442.431+450.37+444.753+449.059+446.719+447.312C447.838+446.319+448.989+445.212+449.75+443.906C450.195+443.142+450.491+442.314+450.625+441.438C450.721+440.812+450.714+440.153+450.594+439.531C449.644+434.637+443.496+434.122+439.5+434.156C438.543+434.164+437.582+434.19+436.625+434.156C435.334+434.111+433.984+433.94+432.719+433.656C432.372+433.578+432.058+433.479+431.75+433.312C431.273+432.165+431.869+430.845+432.438+429.844C433.381+428.182+434.74+426.81+436.25+425.656C436.258+426.913+437.062+428.038+438.344+428.219C439.753+428.417+441.052+427.44+441.25+426.031C441.595+423.577+441.443+420.561+438.5+419.781C438.241+419.713+437.955+419.67+437.688+419.656Z" opacity="1" fill="#278d9c"/>
<path d="M270.562-219.781C269.868-219.837+269.166-219.612+268.594-219.125C264.301-215.467+260.054-211.78+255.812-208.062C250.909-203.765+245.937-199.456+240.562-195.75C234.777-191.761+228.258-189.1+222.094-185.781C217.032-183.056+212.293-179.709+207.688-176.281C189.977-163.1+174.705-146.9+161.594-129.188C152.169-116.456+143.747-102.569+139.5-87.1875C138.506-83.5886+137.742-79.9605+137.594-76.2188C137.393-71.154+138.045-66.1181+138.188-61.0625C138.263-58.3811+138.218-55.6822+138.219-53C138.219-48.4119+138.218-43.8381+138.219-39.25C138.219-37.8273+139.39-36.6562+140.812-36.6562C142.235-36.6562+143.375-37.8274+143.375-39.25C143.376-43.8381+143.374-48.4119+143.375-53C143.375-55.7306+143.42-58.4578+143.344-61.1875C143.205-66.1241+142.552-71.0554+142.75-76C142.884-79.3428+143.578-82.5987+144.469-85.8125C148.56-100.573+156.742-113.865+165.812-126.062C178.651-143.327+193.593-159.127+210.906-171.969C215.306-175.232+219.823-178.406+224.656-181C231.004-184.408+237.665-187.181+243.625-191.281C249.6-195.393+255.113-200.198+260.562-204.969C264.402-208.33+268.239-211.692+272.125-215C273.269-215.974+273.412-217.7+272.438-218.844C271.95-219.416+271.257-219.726+270.562-219.781Z" opacity="1" fill="#278d9c"/>
</g>
</svg>
