<?xml version="1.0" encoding="UTF-8" standalone="no"?> <!-- Created with Vectornator for iOS (http://vectornator.io/) --><!DOCTYPE svg PUBLIC "-//W3C//DTD SVG 1.1//EN" "http://www.w3.org/Graphics/SVG/1.1/DTD/svg11.dtd">
<svg height="100%" style="fill-rule:nonzero;clip-rule:evenodd;stroke-linecap:round;stroke-linejoin:round;" xmlns:xlink="http://www.w3.org/1999/xlink" xmlns="http://www.w3.org/2000/svg" xml:space="preserve" width="100%" xmlns:vectornator="http://vectornator.io" version="1.1" viewBox="0 0 780 780">
<metadata>
<vectornator:setting key="DimensionsVisible" value="1"/>
<vectornator:setting key="PencilOnly" value="0"/>
<vectornator:setting key="SnapToPoints" value="0"/>
<vectornator:setting key="OutlineMode" value="0"/>
<vectornator:setting key="CMYKEnabledKey" value="0"/>
<vectornator:setting key="GuidesVisible" value="1"/>
<vectornator:setting key="RulersVisible" value="1"/>
<vectornator:setting key="SnapToEdges" value="0"/>
<vectornator:setting key="DisplayWhiteBackground" value="0"/>
<vectornator:setting key="doHistoryDisabled" value="0"/>
<vectornator:setting key="SnapToGuides" value="1"/>
<vectornator:setting key="TimeLapseWatermarkDisabled" value="0"/>
<vectornator:setting key="DynamicGuides" value="0"/>
<vectornator:setting key="Units" value="Pixels"/>
<vectornator:setting key="SnapToGrid" value="0"/>
<vectornator:setting key="IsolateActiveLayer" value="0"/>
</metadata>
<defs>
<path d="M170.071+379.992L609.929+379.992C617.567+379.992+623.759+386.141+623.759+393.725L623.759+692.363C623.759+699.948+617.567+706.096+609.929+706.096L170.071+706.096C162.433+706.096+156.241+699.948+156.241+692.363L156.241+393.725C156.241+386.141+162.433+379.992+170.071+379.992Z" id="Mask"/>
</defs>
<g id="Layer 1" vectornator:layerName="Layer 1">
<g opacity="1">
<path d="M480.401+279.096L480.401+279.096C503.829+285.21+517.866+309.159+511.752+332.587C511.752+332.587+465.645+506.207+424.366+493.832C380.446+480.665+424.366+493.832+424.366+493.832C400.937+487.718+426.909+310.448+426.909+310.448C433.023+287.019+456.972+272.982+480.401+279.096Z" opacity="1" fill="#000000"/>
<path d="M454.274+312.129C449.157+312.391+444.867+319.886+442.5+330.131C435.428+360.728+437.343+438.53+437.343+438.53C437.343+438.53+479.865+377.115+489.913+348.599C494.522+335.52+493.872+323.815+484.507+323.881C477.998+323.928+471.428+331.267+465.332+342.166C466.109+329.397+464.691+319.084+459.628+314.438C457.783+312.745+455.98+312.042+454.274+312.129Z" opacity="1" fill="#ffffff"/>
</g>
<g opacity="1">
<path d="M325.496+273.949L325.496+273.949C349.397+270.072+371.915+286.306+375.792+310.207C375.792+310.207+403.784+487.65+361.025+493.013C315.531+498.719+361.025+493.013+361.025+493.013C337.124+496.89+289.238+324.244+289.238+324.244C285.362+300.343+301.595+277.825+325.496+273.949Z" opacity="1" fill="#000000"/>
<path d="M314.949+314.723C310.374+317.03+309.479+325.62+311.454+335.948C317.351+366.793+350.546+437.184+350.546+437.184C350.546+437.184+364.62+363.823+362.286+333.679C361.216+319.853+355.891+309.409+347.352+313.254C341.417+315.927+338.374+325.296+337.202+337.729C332.752+325.735+327.288+316.874+320.779+314.671C318.407+313.869+316.474+313.954+314.949+314.723Z" opacity="1" fill="#ffffff"/>
</g>
<path d="M165.281+385.375C163.129+385.263+161.032+386.408+160.031+388.469C122.713+465.292+85.1816+542.03+47.8438+618.844C46.435+621.746+47.6606+625.248+50.5625+626.656C53.4644+628.065+56.9663+626.839+58.375+623.938C95.6347+547.086+132.689+470.154+169.969+393.312C171.302+390.565+170.154+387.24+167.406+385.906C166.719+385.573+165.999+385.412+165.281+385.375Z" opacity="1" fill="#d68050"/>
<path d="M621.219+382.875C620.501+382.912+619.781+383.104+619.094+383.438C616.346+384.771+615.198+388.065+616.531+390.812C653.811+467.654+690.897+544.617+728.156+621.469C729.565+624.371+733.067+625.565+735.969+624.156C738.871+622.748+740.065+619.246+738.656+616.344C701.318+539.53+663.818+462.823+626.5+386C625.5+383.939+623.371+382.763+621.219+382.875Z" opacity="1" fill="#d68050"/>
<path d="M170.071+379.992L609.929+379.992C617.567+379.992+623.759+386.141+623.759+393.725L623.759+692.363C623.759+699.948+617.567+706.096+609.929+706.096L170.071+706.096C162.433+706.096+156.241+699.948+156.241+692.363L156.241+393.725C156.241+386.141+162.433+379.992+170.071+379.992Z" opacity="1" fill="#d68050"/>
<g opacity="1" vectornator:mask="#Mask">
<use xlink:href="#Mask" fill="#d68050" stroke="none"/>
<clipPath id="ClipPath">
<use xlink:href="#Mask" fill="none" overflow="visible"/>
</clipPath>
<g clip-path="url(#ClipPath)">
<path d="M236.437+379.992L543.563+379.992C548.896+379.992+620.817+378.301+620.817+378.301L553.219+598.101C553.219+603.397+548.896+607.69+543.563+607.69L236.437+607.69C231.104+607.69+226.781+603.397+226.781+598.101L146.518+374.273C146.518+374.273+231.104+379.992+236.437+379.992Z" opacity="1" fill="#d69350"/>
</g>
</g>
</g>
</svg>
