<?xml version="1.0" encoding="UTF-8" standalone="no"?> <!-- Created with Vectornator for iOS (http://vectornator.io/) --><!DOCTYPE svg PUBLIC "-//W3C//DTD SVG 1.1//EN" "http://www.w3.org/Graphics/SVG/1.1/DTD/svg11.dtd">
<svg height="100%" style="fill-rule:nonzero;clip-rule:evenodd;stroke-linecap:round;stroke-linejoin:round;" xmlns:xlink="http://www.w3.org/1999/xlink" xmlns="http://www.w3.org/2000/svg" xml:space="preserve" width="100%" xmlns:vectornator="http://vectornator.io" version="1.1" viewBox="0 0 780 780">
<metadata>
<vectornator:setting key="DimensionsVisible" value="1"/>
<vectornator:setting key="PencilOnly" value="0"/>
<vectornator:setting key="SnapToPoints" value="0"/>
<vectornator:setting key="OutlineMode" value="0"/>
<vectornator:setting key="RulersVisible" value="1"/>
<vectornator:setting key="GuidesVisible" value="1"/>
<vectornator:setting key="SnapToEdges" value="0"/>
<vectornator:setting key="CMYKEnabledKey" value="0"/>
<vectornator:setting key="DisplayWhiteBackground" value="0"/>
<vectornator:setting key="doHistoryDisabled" value="0"/>
<vectornator:setting key="TimeLapseWatermarkDisabled" value="0"/>
<vectornator:setting key="SnapToGuides" value="1"/>
<vectornator:setting key="DynamicGuides" value="0"/>
<vectornator:setting key="IsolateActiveLayer" value="0"/>
<vectornator:setting key="SnapToGrid" value="0"/>
<vectornator:setting key="Units" value="Pixels"/>
</metadata>
<defs/>
<g id="Layer 1" vectornator:layerName="Layer 1">
<path stroke="#726b64" stroke-width="10" d="M414.301+140.346L534.492+141.341L532.917+285.659" fill="none" stroke-linecap="round" opacity="1" stroke-linejoin="round"/>
<path stroke="#726b64" stroke-width="10" d="M232.211+286.184L230.637+140.291L356.193+141.137" fill="none" stroke-linecap="round" opacity="1" stroke-linejoin="round"/>
<path d="M213.271+277.985L252.706+277.985C256.633+277.985+259.816+281.169+259.816+285.096L259.816+548.178C259.816+552.105+256.633+555.289+252.706+555.289L213.271+555.289C209.344+555.289+206.161+552.105+206.161+548.178L206.161+285.096C206.161+281.169+209.344+277.985+213.271+277.985Z" opacity="1" fill="#d68050"/>
<path d="M511.134+277.985L550.569+277.985C554.496+277.985+557.679+281.169+557.679+285.096L557.679+548.178C557.679+552.105+554.496+555.289+550.569+555.289L511.134+555.289C507.207+555.289+504.024+552.105+504.024+548.178L504.024+285.096C504.024+281.169+507.207+277.985+511.134+277.985Z" opacity="1" fill="#d68050"/>
<path d="M631.898+722.607L148.102+722.607C139.918+722.607+133.283+717.494+133.283+711.186L133.283+466.864C133.283+460.556+139.918+455.443+148.102+455.443L631.898+455.443C640.082+455.443+646.717+460.556+646.717+466.864L646.717+711.186C646.717+717.494+640.082+722.607+631.898+722.607Z" opacity="0.774436" fill="#d4eff3"/>
<path stroke="#278d9c" stroke-width="10" d="M631.898+722.607L148.102+722.607C139.918+722.607+133.283+715.973+133.283+707.788L133.283+390.782C133.283+382.598+139.918+375.963+148.102+375.963L631.898+375.963C640.082+375.963+646.717+382.598+646.717+390.782L646.717+707.788C646.717+715.973+640.082+722.607+631.898+722.607Z" fill="none" stroke-linecap="round" opacity="1" stroke-linejoin="round"/>
<path stroke="#726b64" stroke-width="10" d="M410.708+79.9799L410.708+130.046L410.708+202.39" fill="none" stroke-linecap="round" opacity="1" stroke-linejoin="round"/>
<path d="M363.125+109.219C360.349+109.155+358.064+111.349+358+114.125C357.581+131.453+356.939+148.767+356.5+166.094C356.432+169.025+358.756+171.464+361.688+171.531C364.619+171.599+367.058+169.275+367.125+166.344C367.485+149.015+367.651+131.672+368.031+114.344C368.095+111.568+365.901+109.283+363.125+109.219Z" opacity="1" fill="#726b64"/>
<path stroke="#278d9c" stroke-width="3.14031" d="M425.146+114.739L450.439+115.049" fill="none" stroke-linecap="round" opacity="1" stroke-linejoin="round"/>
<path stroke="#278d9c" stroke-width="3.14031" d="M439.112+101.549L437.56+126.997" fill="none" stroke-linecap="round" opacity="1" stroke-linejoin="round"/>
<path stroke="#278d9c" stroke-width="3.14031" d="M318.791+116.32L340.003+116.114" fill="none" stroke-linecap="round" opacity="1" stroke-linejoin="round"/>
</g>
<g id="Layer 3" vectornator:layerName="Layer 3">
<g opacity="1">
<path d="M519.363+306.285C518.555+305.423+517.893+304.469+517.378+303.423C516.862+302.377+516.603+301.188+516.599+299.855C516.596+298.741+516.769+297.719+517.118+296.788C517.467+295.857+517.945+295.054+518.551+294.378C519.157+293.703+519.863+293.177+520.667+292.802C521.472+292.426+522.328+292.237+523.237+292.235C524.203+292.232+525.061+292.373+525.809+292.656C526.556+292.94+527.206+293.319+527.756+293.794C528.307+294.268+528.77+294.824+529.145+295.46C529.52+296.096+529.822+296.762+530.051+297.457C530.28+298.152+530.443+298.862+530.54+299.587C530.637+300.312+530.687+301.004+530.688+301.663C530.691+302.718+530.661+303.604+530.597+304.322C530.533+305.04+530.443+305.692+530.327+306.278L532.195+306.295C533+306.293+533.7+306.174+534.292+305.938C534.885+305.702+535.375+305.371+535.762+304.946C536.149+304.52+536.437+304.01+536.626+303.416C536.815+302.822+536.908+302.159+536.906+301.427C536.904+300.738+536.855+300.079+536.758+299.45C536.661+298.82+536.535+298.231+536.38+297.682C536.224+297.133+536.047+296.628+535.848+296.167C535.649+295.706+535.44+295.315+535.219+294.993L538.05+293.645C538.403+294.187+538.73+294.779+539.032+295.423C539.334+296.066+539.593+296.743+539.807+297.453C540.021+298.163+540.192+298.888+540.318+299.627C540.445+300.366+540.509+301.095+540.511+301.813C540.514+303.131+540.36+304.318+540.048+305.374C539.735+306.429+539.251+307.324+538.594+308.058C537.936+308.792+537.099+309.359+536.082+309.757C535.065+310.155+533.846+310.356+532.425+310.36L521.043+310.368L521.05+312.895L517.271+312.905L517.253+306.291L519.363+306.285ZM520.029+300.746C520.031+301.288+520.098+301.83+520.231+302.372C520.365+302.914+520.545+303.426+520.774+303.909C521.002+304.391+521.267+304.837+521.568+305.247C521.87+305.656+522.182+306+522.505+306.277L527.646+306.285L527.634+301.539C527.632+300.748+527.542+300.027+527.364+299.376C527.187+298.724+526.929+298.161+526.591+297.686C526.253+297.211+525.834+296.842+525.336+296.58C524.837+296.317+524.265+296.187+523.621+296.189C523.02+296.19+522.497+296.301+522.05+296.522C521.604+296.743+521.232+297.056+520.932+297.459C520.633+297.863+520.407+298.343+520.255+298.9C520.103+299.457+520.027+300.073+520.029+300.746Z" opacity="1" fill="#ffffff"/>
<path d="M521.102+332.494L521.111+335.702L531.504+335.675C533.247+335.67+534.568+335.223+535.466+334.335C536.365+333.446+536.812+332.174+536.807+330.519C536.805+329.567+536.575+328.608+536.119+327.642C535.662+326.677+535.096+325.763+534.419+324.9L521.082+324.936L521.091+328.144L517.311+328.154L517.283+317.519L521.062+317.509L521.071+320.673L536.276+320.633L536.267+317.469L540.047+317.459L540.066+324.71L537.385+324.717L537.385+324.761C537.811+325.243+538.216+325.758+538.598+326.307C538.98+326.855+539.311+327.429+539.591+328.029C539.871+328.629+540.093+329.254+540.255+329.906C540.418+330.557+540.501+331.242+540.503+331.959C540.506+333.175+540.34+334.274+540.006+335.257C539.672+336.239+539.161+337.075+538.475+337.766C537.788+338.456+536.907+338.989+535.831+339.366C534.755+339.742+533.485+339.932+532.02+339.936L521.122+339.965L521.13+343.129L517.351+343.139L517.323+332.504L521.102+332.494Z" opacity="1" fill="#ffffff"/>
<path d="M528.744+347.196C530.545+347.206+532.187+347.491+533.668+348.051C535.149+348.611+536.422+349.395+537.486+350.403C538.551+351.41+539.371+352.609+539.946+354C540.521+355.39+540.81+356.92+540.815+358.59C540.819+360.274+540.538+361.817+539.97+363.217C539.403+364.618+538.596+365.817+537.552+366.816C536.507+367.815+535.246+368.595+533.768+369.155C532.29+369.716+530.65+369.998+528.848+370.003C527.076+370.008+525.445+369.734+523.957+369.181C522.469+368.628+521.188+367.855+520.116+366.862C519.045+365.869+518.21+364.674+517.613+363.276C517.016+361.879+516.715+360.338+516.711+358.653C516.706+356.94+516.995+355.386+517.577+353.993C518.16+352.6+518.981+351.404+520.04+350.405C521.099+349.406+522.368+348.626+523.846+348.066C525.324+347.505+526.957+347.215+528.744+347.196ZM528.755+351.524C527.451+351.528+526.273+351.718+525.219+352.094C524.165+352.47+523.269+352.985+522.531+353.639C521.793+354.293+521.224+355.049+520.824+355.907C520.423+356.765+520.224+357.677+520.227+358.644C520.229+359.655+520.429+360.596+520.827+361.466C521.225+362.337+521.795+363.093+522.536+363.736C523.278+364.378+524.176+364.881+525.232+365.245C526.288+365.608+527.475+365.788+528.793+365.785C530.17+365.781+531.392+365.595+532.461+365.226C533.529+364.856+534.421+364.352+535.137+363.713C535.854+363.074+536.394+362.315+536.757+361.435C537.121+360.555+537.302+359.61+537.299+358.599C537.297+357.632+537.111+356.721+536.743+355.865C536.374+355.009+535.83+354.256+535.111+353.606C534.391+352.956+533.496+352.446+532.426+352.075C531.356+351.704+530.132+351.521+528.755+351.524Z" opacity="1" fill="#ffffff"/>
<path d="M551.659+387.785L551.678+394.97L521.268+395.05L521.277+398.39L517.497+398.4L517.478+390.973L519.345+390.968C518.596+390.238+518.012+389.39+517.592+388.424C517.172+387.458+516.96+386.36+516.957+385.13C516.953+383.592+517.216+382.159+517.747+380.832C518.279+379.505+519.059+378.353+520.089+377.376C521.12+376.399+522.385+375.634+523.885+375.081C525.385+374.528+527.101+374.249+529.035+374.243C530.793+374.239+532.394+374.498+533.838+375.022C535.282+375.545+536.515+376.289+537.535+377.253C538.556+378.217+539.35+379.38+539.918+380.74C540.485+382.101+540.771+383.617+540.776+385.287C540.779+386.385+540.66+387.389+540.421+388.298C540.182+389.207+539.763+390.079+539.165+390.916L547.888+390.893L547.88+387.795L551.659+387.785ZM520.518+385.648C520.521+386.864+520.703+387.881+521.064+388.701C521.425+389.52+521.966+390.273+522.685+390.96L535.429+390.926C536.043+390.192+536.487+389.348+536.763+388.395C537.039+387.442+537.175+386.468+537.173+385.472C537.17+384.505+536.988+383.597+536.627+382.749C536.266+381.9+535.74+381.158+535.05+380.523C534.36+379.887+533.516+379.388+532.519+379.024C531.522+378.661+530.379+378.481+529.09+378.484C527.684+378.488+526.447+378.667+525.378+379.021C524.31+379.376+523.414+379.869+522.69+380.5C521.967+381.132+521.423+381.888+521.06+382.768C520.696+383.648+520.515+384.608+520.518+385.648Z" opacity="1" fill="#ffffff"/>
<path d="M528.372+406.15C527.728+406.151+527.138+406.2+526.604+406.297C526.07+406.394+525.561+406.531+525.078+406.708C523.615+407.253+522.515+408.124+521.778+409.32C521.041+410.516+520.675+411.868+520.679+413.377C520.682+414.564+520.85+415.717+521.183+416.836C521.515+417.956+522.035+419.13+522.741+420.359L519.955+422.014C518.926+420.523+518.16+419.023+517.658+417.516C517.156+416.008+516.903+414.442+516.898+412.816C516.894+411.278+517.147+409.852+517.656+408.54C518.165+407.228+518.924+406.098+519.932+405.15C520.941+404.203+522.198+403.46+523.706+402.921C525.213+402.382+526.97+402.11+528.977+402.105C530.603+402.101+532.138+402.324+533.582+402.774C535.026+403.224+536.288+403.898+537.367+404.796C538.446+405.694+539.302+406.809+539.935+408.14C540.569+409.472+540.888+411.024+540.893+412.796C540.897+414.51+540.641+415.943+540.124+417.094C539.607+418.245+538.921+419.184+538.066+419.912C537.211+420.639+536.235+421.191+535.137+421.567C534.039+421.944+532.919+422.207+531.777+422.356C531.221+422.431+530.657+422.48+530.086+422.504C529.515+422.527+528.958+422.54+528.416+422.541L528.372+406.15ZM537.464+412.52C537.462+411.567+537.324+410.736+537.051+410.027C536.778+409.317+536.388+408.714+535.882+408.217C535.375+407.72+534.755+407.323+534.022+407.024C533.289+406.726+532.468+406.505+531.559+406.361L531.59+418.16C532.44+418.099+533.223+417.962+533.94+417.747C534.658+417.533+535.279+417.206+535.805+416.765C536.332+416.324+536.74+415.759+537.031+415.07C537.323+414.38+537.467+413.53+537.464+412.52Z" opacity="1" fill="#ffffff"/>
</g>
<g opacity="1">
<path d="M236.349+312.514C237.446+311.896+238.25+311.114+238.76+310.168C239.27+309.222+239.524+308.126+239.52+306.881C239.518+305.929+239.318+305.036+238.92+304.202C238.522+303.368+237.956+302.641+237.222+302.02C236.488+301.399+235.597+300.911+234.549+300.555C233.501+300.199+232.332+300.022+231.043+300.026C229.768+300.029+228.619+300.212+227.594+300.573C226.57+300.935+225.696+301.432+224.973+302.063C224.249+302.695+223.695+303.425+223.309+304.254C222.923+305.083+222.731+305.973+222.733+306.925C222.737+308.331+223.081+309.554+223.765+310.592C224.449+311.63+225.451+312.455+226.771+313.067L225.11+316.455C224.171+316.018+223.327+315.478+222.579+314.836C221.83+314.193+221.191+313.466+220.661+312.655C220.132+311.843+219.723+310.951+219.435+309.977C219.146+309.004+219.001+307.975+218.998+306.891C218.994+305.309+219.286+303.847+219.876+302.505C220.466+301.163+221.294+300.004+222.361+299.027C223.428+298.05+224.7+297.289+226.178+296.743C227.656+296.197+229.274+295.922+231.032+295.917C232.79+295.912+234.409+296.194+235.89+296.761C237.371+297.328+238.644+298.109+239.709+299.102C240.773+300.095+241.608+301.258+242.212+302.589C242.816+303.92+243.12+305.348+243.124+306.871C243.128+308.307+242.882+309.666+242.388+310.949C241.893+312.232+241.142+313.358+240.133+314.328L240.14+316.635L236.36+316.645L236.349+312.514Z" opacity="1" fill="#ffffff"/>
<path d="M221.817+334.064C221.009+333.202+220.347+332.248+219.831+331.202C219.316+330.156+219.056+328.966+219.053+327.633C219.05+326.52+219.223+325.498+219.572+324.567C219.921+323.636+220.399+322.832+221.005+322.157C221.611+321.481+222.316+320.956+223.121+320.58C223.926+320.205+224.782+320.016+225.69+320.013C226.657+320.011+227.515+320.151+228.262+320.435C229.01+320.718+229.659+321.098+230.21+321.572C230.761+322.047+231.223+322.602+231.599+323.238C231.974+323.875+232.276+324.54+232.505+325.236C232.734+325.931+232.897+326.641+232.994+327.366C233.091+328.09+233.14+328.783+233.142+329.442C233.145+330.496+233.114+331.383+233.05+332.101C232.986+332.819+232.897+333.471+232.781+334.057L234.649+334.074C235.454+334.072+236.153+333.953+236.746+333.717C237.339+333.481+237.829+333.15+238.216+332.724C238.603+332.298+238.891+331.789+239.079+331.195C239.268+330.601+239.362+329.938+239.36+329.205C239.358+328.517+239.309+327.858+239.212+327.228C239.115+326.599+238.989+326.009+238.834+325.461C238.678+324.912+238.501+324.407+238.302+323.946C238.103+323.485+237.893+323.094+237.673+322.772L240.504+321.424C240.857+321.965+241.184+322.558+241.486+323.201C241.788+323.845+242.046+324.522+242.261+325.232C242.475+325.942+242.645+326.666+242.772+327.406C242.898+328.145+242.963+328.874+242.964+329.591C242.968+330.91+242.814+332.097+242.501+333.152C242.189+334.208+241.705+335.103+241.047+335.837C240.39+336.571+239.553+337.137+238.536+337.535C237.519+337.934+236.3+338.135+234.879+338.138L223.497+338.146L223.504+340.673L219.725+340.683L219.707+334.07L221.817+334.064ZM222.483+328.525C222.484+329.067+222.552+329.609+222.685+330.151C222.818+330.692+222.999+331.204+223.227+331.687C223.456+332.17+223.721+332.616+224.022+333.025C224.323+333.435+224.636+333.778+224.959+334.056L230.1+334.064L230.088+329.318C230.086+328.527+229.996+327.806+229.818+327.154C229.641+326.503+229.383+325.94+229.045+325.464C228.707+324.989+228.288+324.621+227.789+324.358C227.291+324.096+226.719+323.966+226.074+323.967C225.474+323.969+224.95+324.08+224.504+324.301C224.058+324.522+223.685+324.834+223.386+325.238C223.087+325.641+222.861+326.122+222.709+326.679C222.556+327.236+222.481+327.851+222.483+328.525Z" opacity="1" fill="#ffffff"/>
<path d="M242.518+351.829L242.532+357.168L239.214+357.177L239.2+351.794L226.06+351.763C225.167+351.765+224.442+351.87+223.886+352.076C223.33+352.283+222.946+352.613+222.735+353.068C222.524+353.523+222.419+354.036+222.42+354.607C222.422+355.222+222.478+355.764+222.589+356.232C222.7+356.701+222.889+357.213+223.154+357.769L220.41+358.721C220.042+358.019+219.75+357.28+219.536+356.504C219.321+355.728+219.213+354.813+219.21+353.758C219.207+352.762+219.326+351.894+219.566+351.154C219.805+350.413+220.21+349.79+220.78+349.283C221.35+348.776+222.115+348.397+223.073+348.145C224.032+347.894+225.229+347.766+226.665+347.762L239.189+347.795L239.18+344.169L242.498+344.161L242.507+347.83L247.957+347.816L249.857+351.81L242.518+351.829Z" opacity="1" fill="#ffffff"/>
<path d="M253.971+362.258L253.991+369.465L240.06+369.502L240.06+369.633C240.471+370.043+240.857+370.514+241.218+371.048C241.578+371.581+241.891+372.141+242.156+372.726C242.421+373.311+242.628+373.919+242.776+374.548C242.924+375.178+242.999+375.837+243.001+376.525C243.004+377.741+242.839+378.84+242.504+379.822C242.17+380.805+241.659+381.641+240.973+382.331C240.286+383.022+239.405+383.555+238.329+383.931C237.254+384.308+235.983+384.498+234.519+384.502L223.62+384.531L223.629+387.958L219.85+387.968L219.821+377.158L223.601+377.148L223.609+380.268L234.002+380.24C235.745+380.236+237.066+379.789+237.964+378.901C238.863+378.012+239.31+376.74+239.306+375.085C239.303+374.147+239.077+373.196+238.628+372.23C238.179+371.264+237.616+370.358+236.94+369.51L223.58+369.545L223.589+372.841L219.81+372.851L219.781+362.041L223.561+362.031L223.57+365.458L250.2+365.388L250.192+362.268L253.971+362.258Z" opacity="1" fill="#ffffff"/>
<path d="M231.241+391.454C233.043+391.464+234.684+391.749+236.165+392.309C237.646+392.869+238.919+393.653+239.984+394.661C241.048+395.669+241.868+396.868+242.443+398.258C243.018+399.648+243.308+401.178+243.312+402.848C243.317+404.532+243.035+406.075+242.468+407.475C241.9+408.876+241.094+410.075+240.049+411.074C239.004+412.073+237.743+412.853+236.265+413.413C234.787+413.974+233.147+414.256+231.345+414.261C229.573+414.266+227.943+413.992+226.454+413.439C224.966+412.886+223.686+412.114+222.614+411.12C221.542+410.127+220.708+408.932+220.111+407.534C219.514+406.137+219.213+404.596+219.208+402.911C219.204+401.198+219.493+399.644+220.075+398.251C220.657+396.858+221.478+395.662+222.537+394.663C223.597+393.664+224.865+392.884+226.343+392.324C227.821+391.763+229.454+391.473+231.241+391.454ZM231.253+395.782C229.949+395.786+228.77+395.976+227.716+396.352C226.663+396.728+225.767+397.243+225.029+397.897C224.291+398.551+223.722+399.307+223.321+400.165C222.92+401.023+222.721+401.935+222.724+402.902C222.727+403.913+222.927+404.854+223.325+405.724C223.723+406.595+224.292+407.351+225.034+407.994C225.775+408.636+226.674+409.139+227.729+409.503C228.785+409.866+229.972+410.046+231.29+410.043C232.667+410.039+233.89+409.853+234.958+409.484C236.027+409.114+236.919+408.61+237.635+407.971C238.351+407.332+238.891+406.573+239.255+405.693C239.619+404.813+239.799+403.868+239.797+402.857C239.794+401.89+239.609+400.979+239.24+400.123C238.872+399.267+238.328+398.514+237.608+397.864C236.889+397.214+235.994+396.704+234.923+396.333C233.853+395.962+232.63+395.779+231.253+395.782Z" opacity="1" fill="#ffffff"/>
<path d="M254.156+432.043L254.175+439.228L223.765+439.308L223.774+442.648L219.995+442.658L219.975+435.231L221.843+435.226C221.094+434.496+220.509+433.648+220.089+432.682C219.669+431.717+219.458+430.618+219.454+429.388C219.45+427.85+219.714+426.417+220.245+425.09C220.776+423.763+221.557+422.611+222.587+421.634C223.617+420.657+224.882+419.892+226.382+419.339C227.882+418.786+229.599+418.507+231.532+418.501C233.29+418.497+234.891+418.756+236.336+419.28C237.78+419.803+239.012+420.547+240.033+421.511C241.054+422.475+241.848+423.638+242.415+424.998C242.983+426.359+243.269+427.875+243.273+429.545C243.276+430.643+243.158+431.647+242.919+432.556C242.679+433.465+242.261+434.337+241.662+435.174L250.385+435.151L250.377+432.053L254.156+432.043ZM223.015+429.906C223.019+431.122+223.201+432.139+223.562+432.959C223.923+433.778+224.463+434.531+225.183+435.218L237.927+435.184C238.54+434.45+238.985+433.606+239.26+432.653C239.536+431.7+239.673+430.726+239.67+429.73C239.668+428.763+239.486+427.855+239.125+427.007C238.763+426.158+238.238+425.416+237.548+424.781C236.858+424.145+236.014+423.646+235.017+423.282C234.02+422.919+232.877+422.739+231.588+422.742C230.181+422.746+228.944+422.925+227.876+423.279C226.807+423.634+225.911+424.127+225.188+424.759C224.465+425.39+223.921+426.146+223.557+427.026C223.193+427.906+223.013+428.866+223.015+429.906Z" opacity="1" fill="#ffffff"/>
<path d="M230.87+450.408C230.225+450.409+229.636+450.458+229.102+450.555C228.567+450.652+228.058+450.789+227.576+450.966C226.112+451.512+225.012+452.382+224.276+453.578C223.539+454.774+223.173+456.126+223.177+457.635C223.18+458.822+223.348+459.975+223.68+461.094C224.013+462.214+224.532+463.388+225.239+464.617L222.452+466.272C221.423+464.781+220.657+463.281+220.155+461.774C219.653+460.266+219.4+458.7+219.396+457.074C219.392+455.536+219.644+454.11+220.154+452.798C220.663+451.486+221.422+450.356+222.43+449.408C223.438+448.461+224.696+447.718+226.203+447.179C227.711+446.64+229.468+446.368+231.474+446.363C233.1+446.359+234.635+446.582+236.08+447.032C237.524+447.482+238.785+448.156+239.864+449.054C240.943+449.952+241.799+451.067+242.433+452.398C243.066+453.73+243.385+455.282+243.39+457.054C243.395+458.768+243.138+460.201+242.621+461.352C242.104+462.503+241.418+463.442+240.563+464.17C239.708+464.897+238.732+465.449+237.634+465.826C236.537+466.202+235.417+466.465+234.275+466.614C233.718+466.689+233.154+466.738+232.583+466.762C232.012+466.785+231.455+466.798+230.913+466.799L230.87+450.408ZM239.962+456.778C239.959+455.825+239.821+454.994+239.548+454.285C239.276+453.575+238.886+452.972+238.379+452.475C237.872+451.978+237.252+451.581+236.519+451.283C235.786+450.984+234.965+450.763+234.057+450.619L234.088+462.418C234.937+462.357+235.721+462.22+236.438+462.005C237.155+461.791+237.777+461.464+238.303+461.023C238.829+460.582+239.238+460.017+239.529+459.328C239.82+458.638+239.964+457.788+239.962+456.778Z" opacity="1" fill="#ffffff"/>
</g>
<g opacity="1">
<path d="M250.215+622.14C250.215+622.498+250.241+622.826+250.294+623.123C250.347+623.42+250.422+623.702+250.52+623.971C250.821+624.785+251.303+625.397+251.967+625.808C252.63+626.219+253.381+626.425+254.219+626.425C254.878+626.425+255.519+626.333+256.141+626.15C256.764+625.967+257.417+625.68+258.101+625.289L259.016+626.84C258.186+627.409+257.352+627.832+256.514+628.109C255.675+628.386+254.805+628.524+253.901+628.524C253.047+628.524+252.255+628.382+251.527+628.097C250.799+627.812+250.172+627.389+249.647+626.827C249.122+626.266+248.711+625.566+248.414+624.728C248.117+623.89+247.969+622.913+247.969+621.798C247.969+620.895+248.095+620.042+248.347+619.241C248.599+618.439+248.976+617.739+249.476+617.141C249.977+616.543+250.597+616.069+251.338+615.719C252.078+615.369+252.941+615.194+253.926+615.194C254.878+615.194+255.673+615.339+256.312+615.627C256.951+615.916+257.472+616.299+257.875+616.775C258.278+617.251+258.583+617.794+258.79+618.405C258.998+619.015+259.142+619.637+259.224+620.272C259.264+620.581+259.291+620.895+259.303+621.212C259.315+621.53+259.321+621.839+259.321+622.14L250.215+622.14ZM253.767+617.098C253.238+617.098+252.776+617.174+252.382+617.324C251.987+617.475+251.651+617.69+251.374+617.971C251.098+618.252+250.876+618.596+250.709+619.003C250.542+619.41+250.418+619.865+250.337+620.37L256.892+620.37C256.86+619.898+256.784+619.462+256.666+619.064C256.548+618.665+256.367+618.319+256.123+618.026C255.879+617.733+255.566+617.505+255.183+617.343C254.801+617.18+254.329+617.098+253.767+617.098Z" opacity="1" fill="#278d9c"/>
<path d="M262.312+609.176L266.414+609.176L266.414+626.071L268.318+626.071L268.318+628.17L262.312+628.17L262.312+626.071L264.143+626.071L264.143+611.276L262.312+611.276L262.312+609.176Z" opacity="1" fill="#278d9c"/>
<path d="M272.688+622.14C272.688+622.498+272.714+622.826+272.767+623.123C272.82+623.42+272.895+623.702+272.993+623.971C273.294+624.785+273.776+625.397+274.44+625.808C275.103+626.219+275.854+626.425+276.692+626.425C277.351+626.425+277.992+626.333+278.614+626.15C279.237+625.967+279.89+625.68+280.574+625.289L281.489+626.84C280.659+627.409+279.825+627.832+278.987+628.109C278.149+628.386+277.278+628.524+276.374+628.524C275.52+628.524+274.729+628.382+274+628.097C273.272+627.812+272.645+627.389+272.12+626.827C271.595+626.266+271.184+625.566+270.887+624.728C270.59+623.89+270.442+622.913+270.442+621.798C270.442+620.895+270.568+620.042+270.82+619.241C271.073+618.439+271.449+617.739+271.949+617.141C272.45+616.543+273.07+616.069+273.811+615.719C274.552+615.369+275.414+615.194+276.399+615.194C277.351+615.194+278.147+615.339+278.785+615.627C279.424+615.916+279.945+616.299+280.348+616.775C280.751+617.251+281.056+617.794+281.263+618.405C281.471+619.015+281.615+619.637+281.697+620.272C281.737+620.581+281.764+620.895+281.776+621.212C281.788+621.53+281.794+621.839+281.794+622.14L272.688+622.14ZM276.24+617.098C275.711+617.098+275.249+617.174+274.855+617.324C274.46+617.475+274.124+617.69+273.848+617.971C273.571+618.252+273.349+618.596+273.182+619.003C273.016+619.41+272.891+619.865+272.81+620.37L279.365+620.37C279.333+619.898+279.257+619.462+279.139+619.064C279.021+618.665+278.84+618.319+278.596+618.026C278.352+617.733+278.039+617.505+277.656+617.343C277.274+617.18+276.802+617.098+276.24+617.098Z" opacity="1" fill="#278d9c"/>
<path d="M294.014+618.893C293.672+618.282+293.239+617.835+292.714+617.55C292.189+617.265+291.58+617.123+290.889+617.123C290.36+617.123+289.863+617.233+289.399+617.452C288.936+617.672+288.531+617.985+288.185+618.392C287.839+618.799+287.566+619.294+287.367+619.875C287.168+620.457+287.068+621.106+287.068+621.823C287.068+622.531+287.168+623.169+287.367+623.739C287.566+624.309+287.841+624.795+288.191+625.198C288.541+625.601+288.946+625.91+289.406+626.125C289.865+626.341+290.36+626.449+290.889+626.449C291.67+626.449+292.349+626.26+292.927+625.881C293.505+625.503+293.965+624.948+294.307+624.215L296.187+625.143C295.942+625.664+295.641+626.132+295.283+626.547C294.925+626.962+294.52+627.316+294.069+627.609C293.617+627.902+293.121+628.127+292.579+628.286C292.038+628.445+291.466+628.524+290.864+628.524C289.985+628.524+289.174+628.359+288.429+628.03C287.684+627.7+287.041+627.238+286.5+626.644C285.959+626.05+285.538+625.342+285.237+624.52C284.936+623.698+284.785+622.799+284.785+621.823C284.785+620.846+284.944+619.947+285.261+619.125C285.579+618.303+286.014+617.597+286.567+617.007C287.121+616.417+287.768+615.955+288.508+615.621C289.249+615.288+290.042+615.121+290.889+615.121C291.686+615.121+292.441+615.259+293.153+615.536C293.865+615.813+294.49+616.232+295.027+616.793L296.309+616.793L296.309+618.893L294.014+618.893Z" opacity="1" fill="#278d9c"/>
<path d="M302.192+615.524L305.159+615.524L305.159+617.367L302.168+617.367L302.131+624.667C302.131+625.163+302.188+625.566+302.302+625.875C302.416+626.184+302.599+626.398+302.852+626.516C303.104+626.634+303.389+626.693+303.706+626.693C304.048+626.693+304.349+626.663+304.609+626.602C304.87+626.541+305.155+626.437+305.464+626.29L305.989+627.816C305.598+628.02+305.187+628.18+304.756+628.298C304.325+628.416+303.816+628.475+303.23+628.475C302.677+628.475+302.194+628.408+301.783+628.274C301.372+628.14+301.027+627.914+300.746+627.596C300.465+627.279+300.256+626.854+300.117+626.321C299.979+625.788+299.91+625.122+299.91+624.325L299.946+617.367L297.932+617.367L297.932+615.524L299.971+615.524L299.971+612.496L302.192+611.447L302.192+615.524Z" opacity="1" fill="#278d9c"/>
<path d="M316.926+618.197L314.607+618.197L314.607+617.416C314.338+617.416+314.064+617.467+313.783+617.568C313.502+617.67+313.24+617.825+312.996+618.032C312.751+618.24+312.538+618.504+312.355+618.826C312.172+619.147+312.039+619.528+311.958+619.967L311.958+626.071L314.106+626.071L314.106+628.17L307.832+628.17L307.832+626.071L309.578+626.071L309.59+617.623L307.832+617.623L307.832+615.524L311.873+615.524L311.873+617.269C312.019+617.009+312.184+616.767+312.367+616.543C312.55+616.319+312.753+616.124+312.977+615.957C313.201+615.79+313.449+615.66+313.722+615.566C313.995+615.473+314.29+615.426+314.607+615.426C315.03+615.426+315.429+615.426+315.803+615.426C316.178+615.426+316.552+615.434+316.926+615.45L316.926+618.197Z" opacity="1" fill="#278d9c"/>
<path d="M319.38+621.847C319.388+620.846+319.549+619.934+319.862+619.113C320.175+618.291+320.613+617.585+321.174+616.995C321.736+616.405+322.403+615.951+323.176+615.634C323.949+615.316+324.8+615.157+325.728+615.157C326.663+615.157+327.52+615.316+328.297+615.634C329.074+615.951+329.74+616.401+330.293+616.982C330.846+617.564+331.278+618.266+331.587+619.088C331.896+619.91+332.051+620.822+332.051+621.823C332.051+622.807+331.896+623.713+331.587+624.539C331.278+625.365+330.846+626.075+330.293+626.669C329.74+627.263+329.074+627.725+328.297+628.054C327.52+628.384+326.663+628.549+325.728+628.549C324.775+628.549+323.913+628.386+323.14+628.06C322.367+627.735+321.703+627.277+321.15+626.687C320.597+626.097+320.165+625.391+319.856+624.569C319.547+623.747+319.388+622.84+319.38+621.847ZM321.785+621.847C321.785+622.571+321.888+623.226+322.096+623.812C322.303+624.398+322.588+624.897+322.95+625.308C323.313+625.719+323.732+626.036+324.208+626.26C324.684+626.484+325.19+626.595+325.728+626.595C326.289+626.595+326.812+626.486+327.296+626.266C327.78+626.046+328.201+625.731+328.56+625.32C328.918+624.909+329.198+624.41+329.402+623.824C329.605+623.239+329.707+622.579+329.707+621.847C329.707+621.082+329.605+620.402+329.402+619.808C329.198+619.214+328.92+618.718+328.566+618.319C328.212+617.92+327.791+617.619+327.302+617.416C326.814+617.212+326.289+617.111+325.728+617.111C325.19+617.111+324.684+617.212+324.208+617.416C323.732+617.619+323.313+617.92+322.95+618.319C322.588+618.718+322.303+619.214+322.096+619.808C321.888+620.402+321.785+621.082+321.785+621.847Z" opacity="1" fill="#278d9c"/>
<path d="M334.407+609.176L338.508+609.176L338.508+626.071L340.413+626.071L340.413+628.17L334.407+628.17L334.407+626.071L336.238+626.071L336.238+611.276L334.407+611.276L334.407+609.176Z" opacity="1" fill="#278d9c"/>
<path d="M341.792+615.524L346.589+615.524L346.589+617.623L345.088+617.623L348.054+625.692L351.155+617.623L349.666+617.623L349.666+615.524L354.463+615.524L354.463+617.623L353.157+617.623L347.529+631.82L349.263+631.82L349.263+633.92L344.16+633.92L344.16+631.82L345.698+631.82L347.041+628.341L342.817+617.623L341.792+617.623L341.792+615.524Z" opacity="1" fill="#278d9c"/>
<path d="M360.652+615.524L363.618+615.524L363.618+617.367L360.627+617.367L360.591+624.667C360.591+625.163+360.648+625.566+360.762+625.875C360.876+626.184+361.059+626.398+361.311+626.516C361.563+626.634+361.848+626.693+362.166+626.693C362.507+626.693+362.808+626.663+363.069+626.602C363.329+626.541+363.614+626.437+363.923+626.29L364.448+627.816C364.058+628.02+363.647+628.18+363.215+628.298C362.784+628.416+362.275+628.475+361.689+628.475C361.136+628.475+360.654+628.408+360.243+628.274C359.832+628.14+359.486+627.914+359.205+627.596C358.925+627.279+358.715+626.854+358.577+626.321C358.438+625.788+358.369+625.122+358.369+624.325L358.406+617.367L356.392+617.367L356.392+615.524L358.43+615.524L358.43+612.496L360.652+611.447L360.652+615.524Z" opacity="1" fill="#278d9c"/>
<path d="M368.44+622.14C368.44+622.498+368.466+622.826+368.519+623.123C368.572+623.42+368.647+623.702+368.745+623.971C369.046+624.785+369.528+625.397+370.192+625.808C370.855+626.219+371.606+626.425+372.444+626.425C373.103+626.425+373.744+626.333+374.366+626.15C374.989+625.967+375.642+625.68+376.326+625.289L377.241+626.84C376.411+627.409+375.577+627.832+374.739+628.109C373.901+628.386+373.03+628.524+372.126+628.524C371.272+628.524+370.481+628.382+369.752+628.097C369.024+627.812+368.397+627.389+367.872+626.827C367.347+626.266+366.936+625.566+366.639+624.728C366.342+623.89+366.194+622.913+366.194+621.798C366.194+620.895+366.32+620.042+366.572+619.241C366.825+618.439+367.201+617.739+367.701+617.141C368.202+616.543+368.822+616.069+369.563+615.719C370.304+615.369+371.166+615.194+372.151+615.194C373.103+615.194+373.899+615.339+374.537+615.627C375.176+615.916+375.697+616.299+376.1+616.775C376.503+617.251+376.808+617.794+377.015+618.405C377.223+619.015+377.367+619.637+377.449+620.272C377.489+620.581+377.516+620.895+377.528+621.212C377.54+621.53+377.546+621.839+377.546+622.14L368.44+622.14ZM371.992+617.098C371.463+617.098+371.001+617.174+370.607+617.324C370.212+617.475+369.876+617.69+369.6+617.971C369.323+618.252+369.101+618.596+368.934+619.003C368.767+619.41+368.643+619.865+368.562+620.37L375.117+620.37C375.085+619.898+375.009+619.462+374.891+619.064C374.773+618.665+374.592+618.319+374.348+618.026C374.104+617.733+373.791+617.505+373.408+617.343C373.026+617.18+372.554+617.098+371.992+617.098Z" opacity="1" fill="#278d9c"/>
<path d="M380.586+617.098C380.586+616.887+380.629+616.685+380.714+616.494C380.8+616.303+380.916+616.136+381.062+615.994C381.208+615.851+381.377+615.737+381.569+615.652C381.76+615.566+381.965+615.524+382.185+615.524C382.397+615.524+382.598+615.566+382.789+615.652C382.981+615.737+383.147+615.851+383.29+615.994C383.432+616.136+383.546+616.303+383.632+616.494C383.717+616.685+383.76+616.887+383.76+617.098C383.76+617.318+383.717+617.526+383.632+617.721C383.546+617.916+383.432+618.087+383.29+618.234C383.147+618.38+382.981+618.498+382.789+618.588C382.598+618.677+382.397+618.722+382.185+618.722C381.965+618.722+381.76+618.677+381.569+618.588C381.377+618.498+381.208+618.38+381.062+618.234C380.916+618.087+380.8+617.916+380.714+617.721C380.629+617.526+380.586+617.318+380.586+617.098ZM380.586+626.693C380.586+626.482+380.629+626.28+380.714+626.089C380.8+625.898+380.916+625.731+381.062+625.588C381.208+625.446+381.377+625.332+381.569+625.247C381.76+625.161+381.965+625.118+382.185+625.118C382.397+625.118+382.598+625.161+382.789+625.247C382.981+625.332+383.147+625.446+383.29+625.588C383.432+625.731+383.546+625.898+383.632+626.089C383.717+626.28+383.76+626.482+383.76+626.693C383.76+626.913+383.717+627.12+383.632+627.316C383.546+627.511+383.432+627.684+383.29+627.834C383.147+627.985+382.981+628.103+382.789+628.188C382.598+628.274+382.397+628.317+382.185+628.317C381.965+628.317+381.76+628.274+381.569+628.188C381.377+628.103+381.208+627.985+381.062+627.834C380.916+627.684+380.8+627.511+380.714+627.316C380.629+627.12+380.586+626.913+380.586+626.693Z" opacity="1" fill="#278d9c"/>
<path d="M399.934+626.998C399.454+627.446+398.923+627.812+398.341+628.097C397.759+628.382+397.098+628.524+396.357+628.524C395.739+628.524+395.171+628.427+394.655+628.231C394.138+628.036+393.692+627.769+393.318+627.432C392.944+627.094+392.653+626.701+392.445+626.254C392.238+625.806+392.134+625.33+392.134+624.825C392.134+624.288+392.213+623.812+392.372+623.397C392.531+622.982+392.742+622.622+393.007+622.317C393.271+622.012+393.58+621.755+393.934+621.548C394.288+621.34+394.659+621.174+395.045+621.047C395.432+620.921+395.826+620.832+396.229+620.779C396.632+620.726+397.017+620.699+397.383+620.699C397.969+620.699+398.461+620.718+398.86+620.754C399.259+620.791+399.621+620.842+399.946+620.907L399.958+619.869C399.958+619.422+399.893+619.033+399.763+618.704C399.633+618.374+399.45+618.101+399.214+617.886C398.978+617.67+398.695+617.509+398.365+617.404C398.036+617.298+397.668+617.245+397.261+617.245C396.878+617.245+396.512+617.271+396.162+617.324C395.812+617.377+395.485+617.446+395.179+617.532C394.874+617.617+394.593+617.715+394.337+617.825C394.081+617.935+393.863+618.051+393.684+618.173L392.939+616.598C393.241+616.403+393.57+616.222+393.928+616.055C394.286+615.888+394.663+615.745+395.057+615.627C395.452+615.509+395.855+615.416+396.266+615.347C396.677+615.278+397.082+615.243+397.48+615.243C398.213+615.243+398.872+615.33+399.458+615.505C400.044+615.68+400.54+615.951+400.947+616.317C401.354+616.683+401.667+617.149+401.887+617.715C402.107+618.28+402.217+618.958+402.217+619.747L402.205+626.071L403.608+626.071L403.608+628.17L399.934+628.17L399.934+626.998ZM396.858+626.62C397.159+626.62+397.46+626.583+397.761+626.51C398.062+626.437+398.347+626.337+398.616+626.211C398.884+626.085+399.132+625.938+399.36+625.771C399.588+625.605+399.779+625.432+399.934+625.253L399.946+622.396L397.31+622.396C396.87+622.396+396.469+622.445+396.107+622.543C395.745+622.64+395.432+622.783+395.167+622.97C394.903+623.157+394.697+623.389+394.551+623.666C394.404+623.942+394.331+624.26+394.331+624.618C394.331+624.952+394.392+625.243+394.514+625.491C394.636+625.739+394.809+625.946+395.033+626.113C395.257+626.28+395.523+626.406+395.833+626.492C396.142+626.577+396.484+626.62+396.858+626.62Z" opacity="1" fill="#278d9c"/>
<path d="M418.94+618.917C418.94+618.575+418.861+618.285+418.702+618.044C418.544+617.804+418.338+617.609+418.086+617.458C417.834+617.308+417.553+617.198+417.244+617.129C416.934+617.06+416.633+617.025+416.34+617.025C416.015+617.025+415.716+617.062+415.443+617.135C415.17+617.208+414.937+617.314+414.741+617.452C414.546+617.591+414.393+617.76+414.283+617.959C414.174+618.158+414.119+618.38+414.119+618.624C414.119+619.047+414.247+619.383+414.503+619.631C414.76+619.88+415.189+620.109+415.791+620.321L418.22+621.176C419.262+621.525+420.023+622.002+420.503+622.604C420.983+623.206+421.223+623.926+421.223+624.764C421.223+625.326+421.111+625.841+420.887+626.309C420.664+626.777+420.346+627.175+419.935+627.505C419.524+627.834+419.03+628.091+418.452+628.274C417.874+628.457+417.231+628.549+416.523+628.549C415.539+628.549+414.737+628.39+414.119+628.073C413.5+627.755+413.024+627.336+412.69+626.815L411.421+626.815L411.421+624.716L413.948+624.716C413.948+625.066+414.023+625.365+414.174+625.613C414.324+625.861+414.524+626.062+414.772+626.217C415.02+626.372+415.301+626.486+415.614+626.559C415.927+626.632+416.247+626.669+416.572+626.669C416.89+626.669+417.195+626.63+417.488+626.553C417.781+626.475+418.039+626.361+418.263+626.211C418.487+626.06+418.664+625.879+418.794+625.668C418.924+625.456+418.989+625.216+418.989+624.948C418.989+624.541+418.857+624.195+418.593+623.91C418.328+623.625+417.878+623.369+417.244+623.141L414.827+622.238C413.842+621.888+413.112+621.442+412.635+620.901C412.159+620.36+411.921+619.682+411.921+618.868C411.921+618.331+412.021+617.835+412.22+617.379C412.42+616.923+412.709+616.531+413.087+616.201C413.466+615.872+413.927+615.613+414.473+615.426C415.018+615.239+415.64+615.145+416.34+615.145C417.244+615.145+418+615.271+418.611+615.524C419.221+615.776+419.77+616.207+420.259+616.818L421.443+616.818L421.443+618.917L418.94+618.917Z" opacity="1" fill="#278d9c"/>
<path d="M423.591+621.847C423.599+620.846+423.76+619.934+424.073+619.113C424.387+618.291+424.824+617.585+425.386+616.995C425.947+616.405+426.615+615.951+427.388+615.634C428.161+615.316+429.011+615.157+429.939+615.157C430.875+615.157+431.731+615.316+432.509+615.634C433.286+615.951+433.951+616.401+434.504+616.982C435.058+617.564+435.489+618.266+435.798+619.088C436.108+619.91+436.262+620.822+436.262+621.823C436.262+622.807+436.108+623.713+435.798+624.539C435.489+625.365+435.058+626.075+434.504+626.669C433.951+627.263+433.286+627.725+432.509+628.054C431.731+628.384+430.875+628.549+429.939+628.549C428.987+628.549+428.124+628.386+427.351+628.06C426.578+627.735+425.915+627.277+425.361+626.687C424.808+626.097+424.377+625.391+424.067+624.569C423.758+623.747+423.599+622.84+423.591+621.847ZM425.996+621.847C425.996+622.571+426.1+623.226+426.307+623.812C426.515+624.398+426.8+624.897+427.162+625.308C427.524+625.719+427.943+626.036+428.419+626.26C428.895+626.484+429.402+626.595+429.939+626.595C430.5+626.595+431.023+626.486+431.508+626.266C431.992+626.046+432.413+625.731+432.771+625.32C433.129+624.909+433.41+624.41+433.613+623.824C433.817+623.239+433.918+622.579+433.918+621.847C433.918+621.082+433.817+620.402+433.613+619.808C433.41+619.214+433.131+618.718+432.777+618.319C432.423+617.92+432.002+617.619+431.514+617.416C431.025+617.212+430.5+617.111+429.939+617.111C429.402+617.111+428.895+617.212+428.419+617.416C427.943+617.619+427.524+617.92+427.162+618.319C426.8+618.718+426.515+619.214+426.307+619.808C426.1+620.402+425.996+621.082+425.996+621.847Z" opacity="1" fill="#278d9c"/>
<path d="M438.618+609.176L442.72+609.176L442.72+626.071L444.624+626.071L444.624+628.17L438.618+628.17L438.618+626.071L440.449+626.071L440.449+611.276L438.618+611.276L438.618+609.176Z" opacity="1" fill="#278d9c"/>
<path d="M454.463+615.524L458.54+615.524L458.54+626.071L459.944+626.071L459.944+628.17L456.257+628.17L456.257+626.998C455.688+627.438+455.067+627.78+454.396+628.024C453.724+628.268+453.006+628.39+452.241+628.39C451.606+628.39+451.031+628.298+450.514+628.115C449.997+627.932+449.558+627.647+449.196+627.261C448.833+626.874+448.555+626.384+448.359+625.79C448.164+625.196+448.066+624.488+448.066+623.666L448.066+617.623L446.357+617.623L446.357+615.524L450.435+615.524L450.435+623.397C450.435+624.366+450.658+625.098+451.106+625.594C451.554+626.091+452.196+626.339+453.035+626.339C453.531+626.339+454.054+626.25+454.603+626.071C455.153+625.892+455.671+625.643+456.16+625.326L456.16+617.623L454.463+617.623L454.463+615.524Z" opacity="1" fill="#278d9c"/>
<path d="M466.987+615.524L469.954+615.524L469.954+617.367L466.963+617.367L466.926+624.667C466.926+625.163+466.983+625.566+467.097+625.875C467.211+626.184+467.394+626.398+467.646+626.516C467.899+626.634+468.184+626.693+468.501+626.693C468.843+626.693+469.144+626.663+469.404+626.602C469.665+626.541+469.95+626.437+470.259+626.29L470.784+627.816C470.393+628.02+469.982+628.18+469.551+628.298C469.119+628.416+468.611+628.475+468.025+628.475C467.472+628.475+466.989+628.408+466.578+628.274C466.167+628.14+465.822+627.914+465.541+627.596C465.26+627.279+465.05+626.854+464.912+626.321C464.774+625.788+464.705+625.122+464.705+624.325L464.741+617.367L462.727+617.367L462.727+615.524L464.766+615.524L464.766+612.496L466.987+611.447L466.987+615.524Z" opacity="1" fill="#278d9c"/>
<path d="M472.529+615.524L476.655+615.524L476.655+626.071L478.56+626.071L478.56+628.17L472.554+628.17L472.554+626.071L474.36+626.071L474.36+617.623L472.529+617.623L472.529+615.524ZM473.933+611.044C473.933+610.832+473.976+610.631+474.061+610.439C474.147+610.248+474.261+610.081+474.403+609.939C474.545+609.797+474.714+609.683+474.91+609.597C475.105+609.512+475.312+609.469+475.532+609.469C475.744+609.469+475.945+609.512+476.136+609.597C476.328+609.683+476.495+609.797+476.637+609.939C476.779+610.081+476.893+610.248+476.979+610.439C477.064+610.631+477.107+610.832+477.107+611.044C477.107+611.263+477.064+611.471+476.979+611.666C476.893+611.862+476.779+612.035+476.637+612.185C476.495+612.336+476.328+612.454+476.136+612.539C475.945+612.625+475.744+612.667+475.532+612.667C475.312+612.667+475.105+612.625+474.91+612.539C474.714+612.454+474.545+612.336+474.403+612.185C474.261+612.035+474.147+611.862+474.061+611.666C473.976+611.471+473.933+611.263+473.933+611.044Z" opacity="1" fill="#278d9c"/>
<path d="M480.476+621.847C480.484+620.846+480.645+619.934+480.958+619.113C481.272+618.291+481.709+617.585+482.27+616.995C482.832+616.405+483.499+615.951+484.272+615.634C485.046+615.316+485.896+615.157+486.824+615.157C487.76+615.157+488.616+615.316+489.393+615.634C490.17+615.951+490.836+616.401+491.389+616.982C491.943+617.564+492.374+618.266+492.683+619.088C492.992+619.91+493.147+620.822+493.147+621.823C493.147+622.807+492.992+623.713+492.683+624.539C492.374+625.365+491.943+626.075+491.389+626.669C490.836+627.263+490.17+627.725+489.393+628.054C488.616+628.384+487.76+628.549+486.824+628.549C485.872+628.549+485.009+628.386+484.236+628.06C483.463+627.735+482.799+627.277+482.246+626.687C481.693+626.097+481.261+625.391+480.952+624.569C480.643+623.747+480.484+622.84+480.476+621.847ZM482.881+621.847C482.881+622.571+482.985+623.226+483.192+623.812C483.4+624.398+483.684+624.897+484.047+625.308C484.409+625.719+484.828+626.036+485.304+626.26C485.78+626.484+486.287+626.595+486.824+626.595C487.385+626.595+487.908+626.486+488.392+626.266C488.877+626.046+489.298+625.731+489.656+625.32C490.014+624.909+490.295+624.41+490.498+623.824C490.701+623.239+490.803+622.579+490.803+621.847C490.803+621.082+490.701+620.402+490.498+619.808C490.295+619.214+490.016+618.718+489.662+618.319C489.308+617.92+488.887+617.619+488.398+617.416C487.91+617.212+487.385+617.111+486.824+617.111C486.287+617.111+485.78+617.212+485.304+617.416C484.828+617.619+484.409+617.92+484.047+618.319C483.684+618.718+483.4+619.214+483.192+619.808C482.985+620.402+482.881+621.082+482.881+621.847Z" opacity="1" fill="#278d9c"/>
<path d="M503.926+626.071L505.708+626.071L505.708+620.297C505.708+619.328+505.462+618.594+504.969+618.093C504.477+617.593+503.771+617.343+502.852+617.343C502.323+617.343+501.79+617.469+501.252+617.721C500.715+617.973+500.207+618.287+499.727+618.661L499.727+626.071L501.509+626.071L501.509+628.17L495.601+628.17L495.601+626.071L497.358+626.071L497.358+617.623L495.601+617.623L495.601+615.524L499.629+615.524L499.629+617.013L499.653+617.013C499.922+616.777+500.209+616.553+500.514+616.342C500.819+616.13+501.138+615.947+501.472+615.792C501.806+615.638+502.154+615.516+502.516+615.426C502.878+615.337+503.258+615.292+503.657+615.292C504.333+615.292+504.943+615.385+505.488+615.573C506.034+615.76+506.497+616.045+506.88+616.427C507.262+616.809+507.557+617.3+507.765+617.898C507.972+618.496+508.076+619.202+508.076+620.016L508.076+626.071L509.834+626.071L509.834+628.17L503.926+628.17L503.926+626.071Z" opacity="1" fill="#278d9c"/>
<path d="M518.831+609.017L520.955+609.017L513.63+628.524L511.506+628.524L518.831+609.017Z" opacity="1" fill="#278d9c"/>
<path d="M263.801+640.048L267.903+640.048L267.903+656.942L269.807+656.942L269.807+659.042L263.801+659.042L263.801+656.942L265.632+656.942L265.632+642.147L263.801+642.147L263.801+640.048Z" opacity="1" fill="#278d9c"/>
<path d="M271.931+646.395L276.057+646.395L276.057+656.942L277.961+656.942L277.961+659.042L271.956+659.042L271.956+656.942L273.762+656.942L273.762+648.495L271.931+648.495L271.931+646.395ZM273.335+641.915C273.335+641.704+273.378+641.502+273.463+641.311C273.549+641.12+273.663+640.953+273.805+640.811C273.947+640.668+274.116+640.554+274.312+640.469C274.507+640.383+274.714+640.341+274.934+640.341C275.146+640.341+275.347+640.383+275.538+640.469C275.73+640.554+275.896+640.668+276.039+640.811C276.181+640.953+276.295+641.12+276.381+641.311C276.466+641.502+276.509+641.704+276.509+641.915C276.509+642.135+276.466+642.343+276.381+642.538C276.295+642.733+276.181+642.906+276.039+643.057C275.896+643.207+275.73+643.325+275.538+643.411C275.347+643.496+275.146+643.539+274.934+643.539C274.714+643.539+274.507+643.496+274.312+643.411C274.116+643.325+273.947+643.207+273.805+643.057C273.663+642.906+273.549+642.733+273.463+642.538C273.378+642.343+273.335+642.135+273.335+641.915Z" opacity="1" fill="#278d9c"/>
<path d="M287.349+662.692L289.18+662.692L289.18+658.053C288.773+658.452+288.305+658.763+287.776+658.987C287.247+659.211+286.649+659.323+285.981+659.323C285.127+659.323+284.331+659.174+283.595+658.877C282.858+658.58+282.22+658.145+281.678+657.571C281.137+656.997+280.714+656.293+280.409+655.459C280.104+654.625+279.951+653.671+279.951+652.596C279.951+651.62+280.098+650.731+280.391+649.929C280.684+649.128+281.099+648.444+281.636+647.878C282.173+647.313+282.82+646.873+283.577+646.56C284.333+646.247+285.176+646.09+286.104+646.09C286.714+646.09+287.263+646.157+287.751+646.292C288.24+646.426+288.716+646.648+289.18+646.957L289.18+646.395L291.45+646.395L291.45+662.692L293.354+662.692L293.354+664.791L287.349+664.791L287.349+662.692ZM286.274+657.345C286.966+657.345+287.552+657.231+288.032+657.003C288.512+656.775+288.895+656.507+289.18+656.198L289.18+649.032C288.773+648.698+288.311+648.458+287.794+648.312C287.277+648.165+286.746+648.092+286.201+648.092C285.664+648.092+285.159+648.192+284.687+648.391C284.215+648.59+283.802+648.883+283.448+649.27C283.094+649.657+282.816+650.127+282.612+650.68C282.409+651.233+282.307+651.864+282.307+652.572C282.307+653.353+282.405+654.041+282.6+654.635C282.795+655.229+283.068+655.728+283.418+656.13C283.768+656.533+284.187+656.836+284.675+657.04C285.164+657.243+285.697+657.345+286.274+657.345Z" opacity="1" fill="#278d9c"/>
<path d="M302.388+646.395L306.465+646.395L306.465+656.942L307.869+656.942L307.869+659.042L304.182+659.042L304.182+657.87C303.612+658.309+302.992+658.651+302.321+658.895C301.649+659.139+300.931+659.261+300.166+659.261C299.531+659.261+298.955+659.17+298.439+658.987C297.922+658.804+297.482+658.519+297.12+658.132C296.758+657.746+296.479+657.255+296.284+656.661C296.089+656.067+295.991+655.359+295.991+654.537L295.991+648.495L294.282+648.495L294.282+646.395L298.359+646.395L298.359+654.269C298.359+655.237+298.583+655.97+299.031+656.466C299.478+656.962+300.121+657.211+300.959+657.211C301.456+657.211+301.979+657.121+302.528+656.942C303.077+656.763+303.596+656.515+304.084+656.198L304.084+648.495L302.388+648.495L302.388+646.395Z" opacity="1" fill="#278d9c"/>
<path d="M311.152+646.395L315.278+646.395L315.278+656.942L317.183+656.942L317.183+659.042L311.177+659.042L311.177+656.942L312.983+656.942L312.983+648.495L311.152+648.495L311.152+646.395ZM312.556+641.915C312.556+641.704+312.599+641.502+312.684+641.311C312.77+641.12+312.884+640.953+313.026+640.811C313.169+640.668+313.337+640.554+313.533+640.469C313.728+640.383+313.936+640.341+314.155+640.341C314.367+640.341+314.568+640.383+314.76+640.469C314.951+640.554+315.118+640.668+315.26+640.811C315.402+640.953+315.516+641.12+315.602+641.311C315.687+641.502+315.73+641.704+315.73+641.915C315.73+642.135+315.687+642.343+315.602+642.538C315.516+642.733+315.402+642.906+315.26+643.057C315.118+643.207+314.951+643.325+314.76+643.411C314.568+643.496+314.367+643.539+314.155+643.539C313.936+643.539+313.728+643.496+313.533+643.411C313.337+643.325+313.169+643.207+313.026+643.057C312.884+642.906+312.77+642.733+312.684+642.538C312.599+642.343+312.556+642.135+312.556+641.915Z" opacity="1" fill="#278d9c"/>
<path d="M326.729+640.048L330.72+640.048L330.72+656.942L332.576+656.942L332.576+659.042L328.45+659.042L328.45+658.004C328.043+658.419+327.571+658.743+327.034+658.975C326.497+659.207+325.886+659.323+325.203+659.323C324.348+659.323+323.553+659.174+322.816+658.877C322.08+658.58+321.441+658.145+320.9+657.571C320.358+656.997+319.935+656.293+319.63+655.459C319.325+654.625+319.172+653.671+319.172+652.596C319.172+651.62+319.319+650.731+319.612+649.929C319.905+649.128+320.32+648.444+320.857+647.878C321.394+647.313+322.041+646.873+322.798+646.56C323.555+646.247+324.397+646.09+325.325+646.09C325.935+646.09+326.492+646.157+326.997+646.292C327.502+646.426+327.986+646.66+328.45+646.993L328.45+642.147L326.729+642.147L326.729+640.048ZM325.496+657.345C326.171+657.345+326.737+657.245+327.192+657.046C327.648+656.847+328.067+656.547+328.45+656.149L328.45+649.069C328.043+648.727+327.575+648.479+327.046+648.324C326.517+648.169+325.976+648.092+325.422+648.092C324.885+648.092+324.381+648.192+323.909+648.391C323.437+648.59+323.024+648.881+322.67+649.264C322.316+649.646+322.037+650.114+321.833+650.668C321.63+651.221+321.528+651.856+321.528+652.572C321.528+653.353+321.626+654.041+321.821+654.635C322.017+655.229+322.289+655.728+322.639+656.13C322.989+656.533+323.408+656.836+323.896+657.04C324.385+657.243+324.918+657.345+325.496+657.345Z" opacity="1" fill="#278d9c"/>
<path d="M343.879+646.395L346.846+646.395L346.846+648.239L343.855+648.239L343.818+655.538C343.818+656.035+343.875+656.438+343.989+656.747C344.103+657.056+344.286+657.27+344.539+657.388C344.791+657.506+345.076+657.565+345.393+657.565C345.735+657.565+346.036+657.534+346.296+657.473C346.557+657.412+346.842+657.308+347.151+657.162L347.676+658.688C347.285+658.891+346.874+659.052+346.443+659.17C346.012+659.288+345.503+659.347+344.917+659.347C344.364+659.347+343.881+659.28+343.47+659.146C343.059+659.011+342.714+658.785+342.433+658.468C342.152+658.151+341.943+657.725+341.804+657.192C341.666+656.659+341.597+655.994+341.597+655.197L341.633+648.239L339.619+648.239L339.619+646.395L341.658+646.395L341.658+643.368L343.879+642.318L343.879+646.395Z" opacity="1" fill="#278d9c"/>
<path d="M349.69+640.048L353.694+640.048L353.694+647.787L353.767+647.787C353.995+647.559+354.257+647.345+354.554+647.146C354.851+646.947+355.163+646.774+355.488+646.627C355.814+646.481+356.152+646.367+356.501+646.285C356.851+646.204+357.218+646.163+357.6+646.163C358.276+646.163+358.886+646.257+359.431+646.444C359.976+646.631+360.44+646.916+360.823+647.299C361.205+647.681+361.5+648.171+361.708+648.77C361.915+649.368+362.019+650.074+362.019+650.887L362.019+656.942L363.923+656.942L363.923+659.042L357.917+659.042L357.917+656.942L359.651+656.942L359.651+651.168C359.651+650.2+359.405+649.465+358.912+648.965C358.42+648.464+357.714+648.214+356.794+648.214C356.274+648.214+355.745+648.338+355.208+648.586C354.67+648.835+354.166+649.146+353.694+649.52L353.694+656.942L355.525+656.942L355.525+659.042L349.519+659.042L349.519+656.942L351.423+656.942L351.423+642.147L349.69+642.147L349.69+640.048Z" opacity="1" fill="#278d9c"/>
<path d="M373.481+657.87C373.001+658.317+372.47+658.684+371.888+658.969C371.307+659.253+370.645+659.396+369.905+659.396C369.286+659.396+368.719+659.298+368.202+659.103C367.685+658.907+367.24+658.641+366.865+658.303C366.491+657.965+366.2+657.573+365.992+657.125C365.785+656.678+365.681+656.202+365.681+655.697C365.681+655.16+365.76+654.684+365.919+654.269C366.078+653.854+366.289+653.494+366.554+653.188C366.818+652.883+367.128+652.627+367.482+652.419C367.836+652.212+368.206+652.045+368.593+651.919C368.979+651.793+369.374+651.703+369.777+651.65C370.179+651.597+370.564+651.571+370.93+651.571C371.516+651.571+372.008+651.589+372.407+651.626C372.806+651.663+373.168+651.713+373.494+651.779L373.506+650.741C373.506+650.293+373.441+649.905+373.311+649.575C373.18+649.246+372.997+648.973+372.761+648.757C372.525+648.542+372.242+648.381+371.913+648.275C371.583+648.169+371.215+648.116+370.808+648.116C370.426+648.116+370.059+648.143+369.709+648.196C369.36+648.249+369.032+648.318+368.727+648.403C368.422+648.489+368.141+648.586+367.885+648.696C367.628+648.806+367.41+648.922+367.231+649.044L366.487+647.469C366.788+647.274+367.117+647.093+367.476+646.926C367.834+646.759+368.21+646.617+368.605+646.499C368.999+646.381+369.402+646.287+369.813+646.218C370.224+646.149+370.629+646.115+371.028+646.115C371.76+646.115+372.419+646.202+373.005+646.377C373.591+646.552+374.088+646.823+374.495+647.189C374.902+647.555+375.215+648.021+375.435+648.586C375.654+649.152+375.764+649.83+375.764+650.619L375.752+656.942L377.156+656.942L377.156+659.042L373.481+659.042L373.481+657.87ZM370.405+657.491C370.706+657.491+371.007+657.455+371.309+657.382C371.61+657.308+371.895+657.209+372.163+657.083C372.432+656.956+372.68+656.81+372.908+656.643C373.136+656.476+373.327+656.303+373.481+656.124L373.494+653.268L370.857+653.268C370.417+653.268+370.017+653.317+369.655+653.414C369.292+653.512+368.979+653.654+368.715+653.842C368.45+654.029+368.245+654.261+368.098+654.537C367.952+654.814+367.878+655.131+367.878+655.49C367.878+655.823+367.939+656.114+368.062+656.362C368.184+656.611+368.357+656.818+368.58+656.985C368.804+657.152+369.071+657.278+369.38+657.363C369.689+657.449+370.031+657.491+370.405+657.491Z" opacity="1" fill="#278d9c"/>
<path d="M383.381+646.395L386.348+646.395L386.348+648.239L383.357+648.239L383.32+655.538C383.32+656.035+383.377+656.438+383.491+656.747C383.605+657.056+383.788+657.27+384.041+657.388C384.293+657.506+384.578+657.565+384.895+657.565C385.237+657.565+385.538+657.534+385.798+657.473C386.059+657.412+386.344+657.308+386.653+657.162L387.178+658.688C386.787+658.891+386.376+659.052+385.945+659.17C385.513+659.288+385.005+659.347+384.419+659.347C383.866+659.347+383.383+659.28+382.972+659.146C382.561+659.011+382.216+658.785+381.935+658.468C381.654+658.151+381.444+657.725+381.306+657.192C381.168+656.659+381.099+655.994+381.099+655.197L381.135+648.239L379.121+648.239L379.121+646.395L381.16+646.395L381.16+643.368L383.381+642.318L383.381+646.395Z" opacity="1" fill="#278d9c"/>
<path d="M403.621+649.764C403.279+649.154+402.845+648.706+402.321+648.422C401.796+648.137+401.187+647.994+400.496+647.994C399.967+647.994+399.47+648.104+399.006+648.324C398.542+648.544+398.138+648.857+397.792+649.264C397.446+649.671+397.173+650.165+396.974+650.747C396.774+651.329+396.675+651.978+396.675+652.694C396.675+653.402+396.774+654.041+396.974+654.611C397.173+655.18+397.448+655.667+397.798+656.069C398.148+656.472+398.553+656.781+399.012+656.997C399.472+657.213+399.967+657.321+400.496+657.321C401.277+657.321+401.956+657.131+402.534+656.753C403.112+656.375+403.572+655.819+403.914+655.087L405.793+656.014C405.549+656.535+405.248+657.003+404.89+657.418C404.532+657.833+404.127+658.187+403.676+658.48C403.224+658.773+402.727+658.999+402.186+659.158C401.645+659.316+401.073+659.396+400.471+659.396C399.592+659.396+398.781+659.231+398.036+658.901C397.291+658.572+396.648+658.11+396.107+657.516C395.566+656.922+395.145+656.214+394.844+655.392C394.543+654.57+394.392+653.671+394.392+652.694C394.392+651.718+394.551+650.818+394.868+649.996C395.186+649.174+395.621+648.468+396.174+647.878C396.728+647.288+397.375+646.827+398.115+646.493C398.856+646.159+399.649+645.992+400.496+645.992C401.293+645.992+402.048+646.131+402.76+646.407C403.472+646.684+404.097+647.103+404.634+647.665L405.916+647.665L405.916+649.764L403.621+649.764Z" opacity="1" fill="#278d9c"/>
<path d="M407.966+652.719C407.974+651.718+408.135+650.806+408.448+649.984C408.762+649.162+409.199+648.456+409.761+647.866C410.322+647.276+410.99+646.823+411.763+646.505C412.536+646.188+413.386+646.029+414.314+646.029C415.25+646.029+416.106+646.188+416.884+646.505C417.661+646.823+418.326+647.272+418.879+647.854C419.433+648.436+419.864+649.138+420.173+649.96C420.483+650.782+420.637+651.693+420.637+652.694C420.637+653.679+420.483+654.584+420.173+655.41C419.864+656.236+419.433+656.946+418.879+657.54C418.326+658.134+417.661+658.596+416.884+658.926C416.106+659.255+415.25+659.42+414.314+659.42C413.362+659.42+412.499+659.257+411.726+658.932C410.953+658.606+410.29+658.149+409.736+657.559C409.183+656.969+408.752+656.263+408.442+655.441C408.133+654.619+407.974+653.711+407.966+652.719ZM410.371+652.719C410.371+653.443+410.475+654.098+410.682+654.684C410.89+655.27+411.175+655.768+411.537+656.179C411.899+656.59+412.318+656.908+412.794+657.131C413.27+657.355+413.777+657.467+414.314+657.467C414.875+657.467+415.398+657.357+415.883+657.137C416.367+656.918+416.788+656.602+417.146+656.191C417.504+655.78+417.785+655.282+417.988+654.696C418.192+654.11+418.293+653.451+418.293+652.719C418.293+651.954+418.192+651.274+417.988+650.68C417.785+650.086+417.506+649.589+417.152+649.191C416.798+648.792+416.377+648.491+415.889+648.287C415.4+648.084+414.875+647.982+414.314+647.982C413.777+647.982+413.27+648.084+412.794+648.287C412.318+648.491+411.899+648.792+411.537+649.191C411.175+649.589+410.89+650.086+410.682+650.68C410.475+651.274+410.371+651.954+410.371+652.719Z" opacity="1" fill="#278d9c"/>
<path d="M431.416+656.942L433.198+656.942L433.198+651.168C433.198+650.2+432.952+649.465+432.46+648.965C431.967+648.464+431.261+648.214+430.342+648.214C429.813+648.214+429.28+648.34+428.743+648.593C428.206+648.845+427.697+649.158+427.217+649.532L427.217+656.942L428.999+656.942L428.999+659.042L423.091+659.042L423.091+656.942L424.849+656.942L424.849+648.495L423.091+648.495L423.091+646.395L427.119+646.395L427.119+647.885L427.144+647.885C427.412+647.649+427.699+647.425+428.004+647.213C428.309+647.002+428.629+646.818+428.962+646.664C429.296+646.509+429.644+646.387+430.006+646.298C430.368+646.208+430.749+646.163+431.147+646.163C431.823+646.163+432.433+646.257+432.979+646.444C433.524+646.631+433.988+646.916+434.37+647.299C434.753+647.681+435.048+648.171+435.255+648.77C435.463+649.368+435.566+650.074+435.566+650.887L435.566+656.942L437.324+656.942L437.324+659.042L431.416+659.042L431.416+656.942Z" opacity="1" fill="#278d9c"/>
<path d="M447.224+640.048L451.216+640.048L451.216+656.942L453.071+656.942L453.071+659.042L448.945+659.042L448.945+658.004C448.538+658.419+448.066+658.743+447.529+658.975C446.992+659.207+446.382+659.323+445.698+659.323C444.844+659.323+444.048+659.174+443.312+658.877C442.575+658.58+441.936+658.145+441.395+657.571C440.854+656.997+440.431+656.293+440.126+655.459C439.821+654.625+439.668+653.671+439.668+652.596C439.668+651.62+439.814+650.731+440.107+649.929C440.4+649.128+440.815+648.444+441.353+647.878C441.89+647.313+442.537+646.873+443.293+646.56C444.05+646.247+444.893+646.09+445.82+646.09C446.431+646.09+446.988+646.157+447.493+646.292C447.997+646.426+448.481+646.66+448.945+646.993L448.945+642.147L447.224+642.147L447.224+640.048ZM445.991+657.345C446.667+657.345+447.232+657.245+447.688+657.046C448.144+656.847+448.563+656.547+448.945+656.149L448.945+649.069C448.538+648.727+448.07+648.479+447.541+648.324C447.013+648.169+446.471+648.092+445.918+648.092C445.381+648.092+444.876+648.192+444.404+648.391C443.932+648.59+443.519+648.881+443.165+649.264C442.811+649.646+442.533+650.114+442.329+650.668C442.126+651.221+442.024+651.856+442.024+652.572C442.024+653.353+442.122+654.041+442.317+654.635C442.512+655.229+442.785+655.728+443.135+656.13C443.485+656.533+443.904+656.836+444.392+657.04C444.88+657.243+445.413+657.345+445.991+657.345Z" opacity="1" fill="#278d9c"/>
<path d="M462.861+646.395L466.938+646.395L466.938+656.942L468.342+656.942L468.342+659.042L464.656+659.042L464.656+657.87C464.086+658.309+463.466+658.651+462.794+658.895C462.123+659.139+461.405+659.261+460.64+659.261C460.005+659.261+459.429+659.17+458.912+658.987C458.396+658.804+457.956+658.519+457.594+658.132C457.232+657.746+456.953+657.255+456.758+656.661C456.562+656.067+456.465+655.359+456.465+654.537L456.465+648.495L454.756+648.495L454.756+646.395L458.833+646.395L458.833+654.269C458.833+655.237+459.057+655.97+459.504+656.466C459.952+656.962+460.595+657.211+461.433+657.211C461.93+657.211+462.452+657.121+463.002+656.942C463.551+656.763+464.07+656.515+464.558+656.198L464.558+648.495L462.861+648.495L462.861+646.395Z" opacity="1" fill="#278d9c"/>
<path d="M480.854+649.764C480.513+649.154+480.079+648.706+479.554+648.422C479.03+648.137+478.421+647.994+477.729+647.994C477.201+647.994+476.704+648.104+476.24+648.324C475.776+648.544+475.371+648.857+475.026+649.264C474.68+649.671+474.407+650.165+474.208+650.747C474.008+651.329+473.909+651.978+473.909+652.694C473.909+653.402+474.008+654.041+474.208+654.611C474.407+655.18+474.682+655.667+475.032+656.069C475.382+656.472+475.787+656.781+476.246+656.997C476.706+657.213+477.201+657.321+477.729+657.321C478.511+657.321+479.19+657.131+479.768+656.753C480.346+656.375+480.806+655.819+481.147+655.087L483.027+656.014C482.783+656.535+482.482+657.003+482.124+657.418C481.766+657.833+481.361+658.187+480.909+658.48C480.458+658.773+479.961+658.999+479.42+659.158C478.879+659.316+478.307+659.396+477.705+659.396C476.826+659.396+476.014+659.231+475.27+658.901C474.525+658.572+473.882+658.11+473.341+657.516C472.8+656.922+472.379+656.214+472.078+655.392C471.777+654.57+471.626+653.671+471.626+652.694C471.626+651.718+471.785+650.818+472.102+649.996C472.419+649.174+472.855+648.468+473.408+647.878C473.962+647.288+474.609+646.827+475.349+646.493C476.09+646.159+476.883+645.992+477.729+645.992C478.527+645.992+479.282+646.131+479.994+646.407C480.706+646.684+481.331+647.103+481.868+647.665L483.149+647.665L483.149+649.764L480.854+649.764Z" opacity="1" fill="#278d9c"/>
<path d="M489.033+646.395L491.999+646.395L491.999+648.239L489.009+648.239L488.972+655.538C488.972+656.035+489.029+656.438+489.143+656.747C489.257+657.056+489.44+657.27+489.692+657.388C489.945+657.506+490.229+657.565+490.547+657.565C490.889+657.565+491.19+657.534+491.45+657.473C491.711+657.412+491.995+657.308+492.305+657.162L492.83+658.688C492.439+658.891+492.028+659.052+491.597+659.17C491.165+659.288+490.657+659.347+490.071+659.347C489.517+659.347+489.035+659.28+488.624+659.146C488.213+659.011+487.867+658.785+487.587+658.468C487.306+658.151+487.096+657.725+486.958+657.192C486.82+656.659+486.75+655.994+486.75+655.197L486.787+648.239L484.773+648.239L484.773+646.395L486.812+646.395L486.812+643.368L489.033+642.318L489.033+646.395Z" opacity="1" fill="#278d9c"/>
<path d="M501.973+649.789C501.973+649.447+501.893+649.156+501.735+648.916C501.576+648.676+501.37+648.481+501.118+648.33C500.866+648.18+500.585+648.07+500.276+648C499.967+647.931+499.666+647.897+499.373+647.897C499.047+647.897+498.748+647.933+498.475+648.007C498.203+648.08+497.969+648.186+497.773+648.324C497.578+648.462+497.426+648.631+497.316+648.831C497.206+649.03+497.151+649.252+497.151+649.496C497.151+649.919+497.279+650.255+497.535+650.503C497.792+650.751+498.221+650.981+498.823+651.193L501.252+652.047C502.294+652.397+503.055+652.873+503.535+653.475C504.015+654.078+504.255+654.798+504.255+655.636C504.255+656.198+504.143+656.712+503.92+657.18C503.696+657.648+503.378+658.047+502.968+658.376C502.557+658.706+502.062+658.962+501.484+659.146C500.907+659.329+500.264+659.42+499.556+659.42C498.571+659.42+497.769+659.261+497.151+658.944C496.532+658.627+496.056+658.208+495.723+657.687L494.453+657.687L494.453+655.587L496.98+655.587C496.98+655.937+497.055+656.236+497.206+656.484C497.356+656.733+497.556+656.934+497.804+657.089C498.052+657.243+498.333+657.357+498.646+657.43C498.96+657.504+499.279+657.54+499.604+657.54C499.922+657.54+500.227+657.502+500.52+657.424C500.813+657.347+501.071+657.233+501.295+657.083C501.519+656.932+501.696+656.751+501.826+656.539C501.956+656.328+502.021+656.088+502.021+655.819C502.021+655.412+501.889+655.066+501.625+654.781C501.36+654.497+500.911+654.24+500.276+654.012L497.859+653.109C496.874+652.759+496.144+652.314+495.668+651.772C495.192+651.231+494.954+650.554+494.954+649.74C494.954+649.203+495.053+648.706+495.253+648.251C495.452+647.795+495.741+647.402+496.119+647.073C496.498+646.743+496.96+646.485+497.505+646.298C498.05+646.11+498.673+646.017+499.373+646.017C500.276+646.017+501.033+646.143+501.643+646.395C502.253+646.648+502.803+647.079+503.291+647.689L504.475+647.689L504.475+649.789L501.973+649.789Z" opacity="1" fill="#278d9c"/>
<path d="M325.081+683.883C325.081+684.241+325.107+684.569+325.16+684.866C325.213+685.163+325.288+685.446+325.386+685.714C325.687+686.528+326.169+687.14+326.832+687.551C327.496+687.962+328.246+688.168+329.084+688.168C329.744+688.168+330.385+688.076+331.007+687.893C331.63+687.71+332.283+687.423+332.966+687.032L333.882+688.583C333.052+689.152+332.218+689.576+331.379+689.852C330.541+690.129+329.67+690.267+328.767+690.267C327.913+690.267+327.121+690.125+326.393+689.84C325.664+689.555+325.038+689.132+324.513+688.571C323.988+688.009+323.577+687.309+323.28+686.471C322.983+685.633+322.834+684.656+322.834+683.541C322.834+682.638+322.961+681.785+323.213+680.984C323.465+680.182+323.842+679.482+324.342+678.884C324.843+678.286+325.463+677.812+326.204+677.462C326.944+677.112+327.807+676.937+328.791+676.937C329.744+676.937+330.539+677.082+331.178+677.371C331.817+677.66+332.338+678.042+332.74+678.518C333.143+678.994+333.448+679.537+333.656+680.148C333.864+680.758+334.008+681.381+334.089+682.015C334.13+682.325+334.156+682.638+334.169+682.955C334.181+683.273+334.187+683.582+334.187+683.883L325.081+683.883ZM328.633+678.842C328.104+678.842+327.642+678.917+327.247+679.067C326.853+679.218+326.517+679.434+326.24+679.714C325.964+679.995+325.742+680.339+325.575+680.746C325.408+681.153+325.284+681.608+325.203+682.113L331.758+682.113C331.725+681.641+331.65+681.206+331.532+680.807C331.414+680.408+331.233+680.062+330.989+679.769C330.745+679.476+330.431+679.248+330.049+679.086C329.666+678.923+329.194+678.842+328.633+678.842Z" opacity="1" fill="#278d9c"/>
<path d="M337.178+670.919L341.279+670.919L341.279+687.814L343.184+687.814L343.184+689.913L337.178+689.913L337.178+687.814L339.009+687.814L339.009+673.019L337.178+673.019L337.178+670.919Z" opacity="1" fill="#278d9c"/>
<path d="M347.554+683.883C347.554+684.241+347.58+684.569+347.633+684.866C347.686+685.163+347.761+685.446+347.859+685.714C348.16+686.528+348.642+687.14+349.305+687.551C349.969+687.962+350.719+688.168+351.558+688.168C352.217+688.168+352.858+688.076+353.48+687.893C354.103+687.71+354.756+687.423+355.439+687.032L356.355+688.583C355.525+689.152+354.691+689.576+353.853+689.852C353.014+690.129+352.144+690.267+351.24+690.267C350.386+690.267+349.594+690.125+348.866+689.84C348.138+689.555+347.511+689.132+346.986+688.571C346.461+688.009+346.05+687.309+345.753+686.471C345.456+685.633+345.308+684.656+345.308+683.541C345.308+682.638+345.434+681.785+345.686+680.984C345.938+680.182+346.315+679.482+346.815+678.884C347.316+678.286+347.936+677.812+348.677+677.462C349.417+677.112+350.28+676.937+351.265+676.937C352.217+676.937+353.012+677.082+353.651+677.371C354.29+677.66+354.811+678.042+355.214+678.518C355.616+678.994+355.922+679.537+356.129+680.148C356.337+680.758+356.481+681.381+356.562+682.015C356.603+682.325+356.63+682.638+356.642+682.955C356.654+683.273+356.66+683.582+356.66+683.883L347.554+683.883ZM351.106+678.842C350.577+678.842+350.115+678.917+349.72+679.067C349.326+679.218+348.99+679.434+348.713+679.714C348.437+679.995+348.215+680.339+348.048+680.746C347.881+681.153+347.757+681.608+347.676+682.113L354.231+682.113C354.198+681.641+354.123+681.206+354.005+680.807C353.887+680.408+353.706+680.062+353.462+679.769C353.218+679.476+352.904+679.248+352.522+679.086C352.139+678.923+351.667+678.842+351.106+678.842Z" opacity="1" fill="#278d9c"/>
<path d="M368.879+680.636C368.538+680.026+368.104+679.578+367.579+679.293C367.054+679.008+366.446+678.866+365.754+678.866C365.225+678.866+364.729+678.976+364.265+679.196C363.801+679.415+363.396+679.729+363.051+680.135C362.705+680.542+362.432+681.037+362.233+681.619C362.033+682.201+361.934+682.85+361.934+683.566C361.934+684.274+362.033+684.913+362.233+685.482C362.432+686.052+362.707+686.538+363.057+686.941C363.407+687.344+363.811+687.653+364.271+687.869C364.731+688.084+365.225+688.192+365.754+688.192C366.536+688.192+367.215+688.003+367.793+687.625C368.371+687.246+368.831+686.691+369.172+685.958L371.052+686.886C370.808+687.407+370.507+687.875+370.149+688.29C369.791+688.705+369.386+689.059+368.934+689.352C368.483+689.645+367.986+689.871+367.445+690.029C366.904+690.188+366.332+690.267+365.73+690.267C364.851+690.267+364.039+690.103+363.295+689.773C362.55+689.443+361.907+688.982+361.366+688.387C360.825+687.793+360.404+687.085+360.103+686.263C359.801+685.441+359.651+684.542+359.651+683.566C359.651+682.589+359.81+681.69+360.127+680.868C360.444+680.046+360.88+679.34+361.433+678.75C361.986+678.16+362.633+677.698+363.374+677.365C364.115+677.031+364.908+676.864+365.754+676.864C366.552+676.864+367.307+677.002+368.019+677.279C368.731+677.556+369.355+677.975+369.893+678.536L371.174+678.536L371.174+680.636L368.879+680.636Z" opacity="1" fill="#278d9c"/>
<path d="M377.058+677.267L380.024+677.267L380.024+679.11L377.034+679.11L376.997+686.41C376.997+686.906+377.054+687.309+377.168+687.618C377.282+687.928+377.465+688.141+377.717+688.259C377.97+688.377+378.254+688.436+378.572+688.436C378.914+688.436+379.215+688.406+379.475+688.345C379.735+688.284+380.02+688.18+380.33+688.033L380.854+689.559C380.464+689.763+380.053+689.924+379.622+690.042C379.19+690.16+378.682+690.219+378.096+690.219C377.542+690.219+377.06+690.151+376.649+690.017C376.238+689.883+375.892+689.657+375.612+689.34C375.331+689.022+375.121+688.597+374.983+688.064C374.845+687.531+374.775+686.866+374.775+686.068L374.812+679.11L372.798+679.11L372.798+677.267L374.836+677.267L374.836+674.24L377.058+673.19L377.058+677.267Z" opacity="1" fill="#278d9c"/>
<path d="M391.792+679.94L389.473+679.94L389.473+679.159C389.204+679.159+388.929+679.21+388.649+679.312C388.368+679.413+388.105+679.568+387.861+679.775C387.617+679.983+387.404+680.247+387.22+680.569C387.037+680.89+386.905+681.271+386.824+681.71L386.824+687.814L388.972+687.814L388.972+689.913L382.698+689.913L382.698+687.814L384.443+687.814L384.456+679.366L382.698+679.366L382.698+677.267L386.738+677.267L386.738+679.012C386.885+678.752+387.05+678.51+387.233+678.286C387.416+678.062+387.619+677.867+387.843+677.7C388.067+677.533+388.315+677.403+388.588+677.31C388.86+677.216+389.155+677.169+389.473+677.169C389.896+677.169+390.295+677.169+390.669+677.169C391.043+677.169+391.418+677.177+391.792+677.194L391.792+679.94Z" opacity="1" fill="#278d9c"/>
<path d="M394.319+677.267L398.445+677.267L398.445+687.814L400.349+687.814L400.349+689.913L394.343+689.913L394.343+687.814L396.15+687.814L396.15+679.366L394.319+679.366L394.319+677.267ZM395.723+672.787C395.723+672.575+395.765+672.374+395.851+672.183C395.936+671.991+396.05+671.825+396.193+671.682C396.335+671.54+396.504+671.426+396.699+671.34C396.895+671.255+397.102+671.212+397.322+671.212C397.533+671.212+397.735+671.255+397.926+671.34C398.117+671.426+398.284+671.54+398.426+671.682C398.569+671.825+398.683+671.991+398.768+672.183C398.854+672.374+398.896+672.575+398.896+672.787C398.896+673.007+398.854+673.214+398.768+673.409C398.683+673.605+398.569+673.778+398.426+673.928C398.284+674.079+398.117+674.197+397.926+674.282C397.735+674.368+397.533+674.41+397.322+674.41C397.102+674.41+396.895+674.368+396.699+674.282C396.504+674.197+396.335+674.079+396.193+673.928C396.05+673.778+395.936+673.605+395.851+673.409C395.765+673.214+395.723+673.007+395.723+672.787Z" opacity="1" fill="#278d9c"/>
<path d="M411.567+680.636C411.226+680.026+410.792+679.578+410.267+679.293C409.742+679.008+409.134+678.866+408.442+678.866C407.913+678.866+407.417+678.976+406.953+679.196C406.489+679.415+406.084+679.729+405.739+680.135C405.393+680.542+405.12+681.037+404.921+681.619C404.721+682.201+404.622+682.85+404.622+683.566C404.622+684.274+404.721+684.913+404.921+685.482C405.12+686.052+405.395+686.538+405.745+686.941C406.095+687.344+406.499+687.653+406.959+687.869C407.419+688.084+407.913+688.192+408.442+688.192C409.224+688.192+409.903+688.003+410.481+687.625C411.059+687.246+411.519+686.691+411.86+685.958L413.74+686.886C413.496+687.407+413.195+687.875+412.837+688.29C412.479+688.705+412.074+689.059+411.622+689.352C411.171+689.645+410.674+689.871+410.133+690.029C409.592+690.188+409.02+690.267+408.418+690.267C407.539+690.267+406.727+690.103+405.983+689.773C405.238+689.443+404.595+688.982+404.054+688.387C403.513+687.793+403.092+687.085+402.791+686.263C402.489+685.441+402.339+684.542+402.339+683.566C402.339+682.589+402.498+681.69+402.815+680.868C403.132+680.046+403.568+679.34+404.121+678.75C404.674+678.16+405.321+677.698+406.062+677.365C406.803+677.031+407.596+676.864+408.442+676.864C409.24+676.864+409.995+677.002+410.707+677.279C411.419+677.556+412.043+677.975+412.581+678.536L413.862+678.536L413.862+680.636L411.567+680.636Z" opacity="1" fill="#278d9c"/>
<path d="M415.986+677.267L420.112+677.267L420.112+687.814L422.017+687.814L422.017+689.913L416.011+689.913L416.011+687.814L417.817+687.814L417.817+679.366L415.986+679.366L415.986+677.267ZM417.39+672.787C417.39+672.575+417.433+672.374+417.518+672.183C417.604+671.991+417.718+671.825+417.86+671.682C418.003+671.54+418.171+671.426+418.367+671.34C418.562+671.255+418.77+671.212+418.989+671.212C419.201+671.212+419.402+671.255+419.593+671.34C419.785+671.426+419.952+671.54+420.094+671.682C420.236+671.825+420.35+671.991+420.436+672.183C420.521+672.374+420.564+672.575+420.564+672.787C420.564+673.007+420.521+673.214+420.436+673.409C420.35+673.605+420.236+673.778+420.094+673.928C419.952+674.079+419.785+674.197+419.593+674.282C419.402+674.368+419.201+674.41+418.989+674.41C418.77+674.41+418.562+674.368+418.367+674.282C418.171+674.197+418.003+674.079+417.86+673.928C417.718+673.778+417.604+673.605+417.518+673.409C417.433+673.214+417.39+673.007+417.39+672.787Z" opacity="1" fill="#278d9c"/>
<path d="M427.766+677.267L430.732+677.267L430.732+679.11L427.742+679.11L427.705+686.41C427.705+686.906+427.762+687.309+427.876+687.618C427.99+687.928+428.173+688.141+428.425+688.259C428.678+688.377+428.962+688.436+429.28+688.436C429.622+688.436+429.923+688.406+430.183+688.345C430.444+688.284+430.728+688.18+431.038+688.033L431.562+689.559C431.172+689.763+430.761+689.924+430.33+690.042C429.898+690.16+429.39+690.219+428.804+690.219C428.25+690.219+427.768+690.151+427.357+690.017C426.946+689.883+426.6+689.657+426.32+689.34C426.039+689.022+425.829+688.597+425.691+688.064C425.553+687.531+425.483+686.866+425.483+686.068L425.52+679.11L423.506+679.11L423.506+677.267L425.544+677.267L425.544+674.24L427.766+673.19L427.766+677.267Z" opacity="1" fill="#278d9c"/>
<path d="M432.563+677.267L437.361+677.267L437.361+679.366L435.859+679.366L438.826+687.435L441.926+679.366L440.437+679.366L440.437+677.267L445.234+677.267L445.234+679.366L443.928+679.366L438.301+693.563L440.034+693.563L440.034+695.663L434.932+695.663L434.932+693.563L436.47+693.563L437.812+690.084L433.589+679.366L432.563+679.366L432.563+677.267Z" opacity="1" fill="#278d9c"/>
</g>
</g>
<g id="Layer 2" vectornator:layerName="Layer 2" visibility="hidden">
<path stroke="#388dcf" stroke-width="12" d="M412.233+69.1894L412.233+69.1894C542.746+69.1894+648.549+172.282+648.549+299.453L648.549+313.217C648.549+440.388+542.746+543.481+412.233+543.481L412.233+543.481C281.719+543.481+175.916+440.388+175.916+313.217L175.916+299.453C175.916+172.282+281.719+69.1894+412.233+69.1894Z" fill="#9fcff4" stroke-linecap="round" opacity="0.450194" stroke-linejoin="round"/>
<path d="M525.093+129.832C541.269+102.757+576.564+150.14+594.726+180.478C630.173+239.687+622.136+292.402+622.136+292.402C622.136+292.402+607.557+244.257+581.742+207.027C555.928+169.797+513.845+148.659+525.093+129.832Z" opacity="1" fill="#ffffff"/>
<path d="M631.798+308.585L631.798+308.585C640.057+308.585+646.753+315.047+646.753+323.017L646.753+323.361C646.753+331.331+640.057+337.792+631.798+337.792L631.798+337.792C623.538+337.792+616.842+331.331+616.842+323.361L616.842+323.017C616.842+315.047+623.538+308.585+631.798+308.585Z" opacity="1" fill="#ffffff"/>
</g>
</svg>
