<?xml version="1.0" encoding="UTF-8" standalone="no"?> <!-- Created with Vectornator for iOS (http://vectornator.io/) --><!DOCTYPE svg PUBLIC "-//W3C//DTD SVG 1.1//EN" "http://www.w3.org/Graphics/SVG/1.1/DTD/svg11.dtd">
<svg height="100%" style="fill-rule:nonzero;clip-rule:evenodd;stroke-linecap:round;stroke-linejoin:round;" xmlns:xlink="http://www.w3.org/1999/xlink" xmlns="http://www.w3.org/2000/svg" xml:space="preserve" width="100%" xmlns:vectornator="http://vectornator.io" version="1.1" viewBox="0 0 500 2000">
<metadata>
<vectornator:setting key="DimensionsVisible" value="1"/>
<vectornator:setting key="PencilOnly" value="0"/>
<vectornator:setting key="SnapToPoints" value="0"/>
<vectornator:setting key="GuidesVisible" value="1"/>
<vectornator:setting key="RulersVisible" value="1"/>
<vectornator:setting key="CMYKEnabledKey" value="0"/>
<vectornator:setting key="SnapToEdges" value="0"/>
<vectornator:setting key="OutlineMode" value="0"/>
<vectornator:setting key="DisplayWhiteBackground" value="0"/>
<vectornator:setting key="doHistoryDisabled" value="0"/>
<vectornator:setting key="TimeLapseWatermarkDisabled" value="0"/>
<vectornator:setting key="SnapToGuides" value="1"/>
<vectornator:setting key="DynamicGuides" value="0"/>
<vectornator:setting key="IsolateActiveLayer" value="0"/>
<vectornator:setting key="SnapToGrid" value="0"/>
<vectornator:setting key="Units" value="Pixels"/>
</metadata>
<defs/>
<g id="Layer 1" vectornator:layerName="Layer 1">
<g opacity="1">
<path d="M518.593+255.018L301.133+162.625L40.5256+51.8988L515.117+235.324L518.593+255.018Z" opacity="1" fill="#c15e61"/>
<path/>
</g>
<path d="M413.031+192.997L430.719+199.743C431.687+200.112+432.172+201.196+431.803+202.163L426.456+216.181C426.087+217.149+425.004+217.634+424.036+217.265L406.348+210.519C405.381+210.15+404.896+209.066+405.265+208.098L410.611+194.08C410.98+193.113+412.064+192.628+413.031+192.997Z" opacity="1" fill="#e0a163"/>
<path stroke="#726b64" stroke-width="1" d="M40.9468+52.4318C40.9468+52.4318+46.6693+67.2352+53.4586+69.791C60.2479+72.3467+70.2167+65.2059+70.9616+65.0673C71.7065+64.9288+71.8949+82.0816+78.8771+83.9709C85.8594+85.8602+96.6202+76.003+96.6202+76.003C96.6202+76.003+98.3452+89.3924+104.835+90.7889C111.324+92.1853+119.538+85.6138+119.538+85.6138C119.538+85.6138+121.925+97.8743+126.587+99.6543C131.249+101.434+140.996+95.1619+140.996+95.1619C140.996+95.1619+141.166+104.655+147.099+107.537C153.033+110.419+165.323+105.249+165.323+105.249C165.323+105.249+165.187+117.169+172.777+120.08C180.367+122.991+188.996+115.505+188.996+115.505C188.996+115.505+188.788+127.046+195.754+129.749C202.721+132.453+213.118+125.071+213.118+125.071C213.118+125.071+215.195+138.52+221.501+140.59C227.806+142.66+235.959+135.419+235.959+135.419C235.959+135.419+237.739+149.579+244.221+152.319C250.703+155.06+263.986+147.738+263.986+147.738C263.986+147.738+265.262+163.468+274.108+166.678C282.953+169.888+293.113+159.583+293.113+159.583C293.113+159.583+296.142+178.111+304.65+180.481C313.157+182.85+323.123+171.922+323.123+171.922C323.123+171.922+323.093+191.555+334.291+194.053C345.489+196.55+353.722+184.948+353.722+184.948C353.722+184.948+359.071+203.221+368.91+205.764C378.749+208.308+384.162+197.782+384.162+197.782C384.162+197.782+386.132+213.331+395.283+215.475C404.433+217.619+407.333+207.902+407.333+207.902" fill="none" stroke-linecap="round" opacity="1" stroke-linejoin="round"/>
<path d="M417.139+198.637L417.139+198.637C422.753+198.637+427.304+203.188+427.304+208.802L427.304+209.418C427.304+215.031+422.753+219.582+417.139+219.582L417.139+219.582C411.526+219.582+406.975+215.031+406.975+209.418L406.975+208.802C406.975+203.188+411.526+198.637+417.139+198.637Z" opacity="1" fill="#c15e64"/>
<path d="M417.139+202.27L417.139+202.27C420.844+202.27+423.847+204.895+423.847+208.133L423.847+210.087C423.847+213.325+420.844+215.95+417.139+215.95L417.139+215.95C413.435+215.95+410.431+213.325+410.431+210.087L410.431+208.133C410.431+204.895+413.435+202.27+417.139+202.27Z" opacity="1" fill="#e0a163"/>
<path d="M403.197+215.987L416.062+208.522C416.792+208.099+417.726+208.347+418.15+209.077L418.15+209.077C418.573+209.806+418.325+210.741+417.595+211.164L404.73+218.629C404.001+219.052+403.066+218.804+402.643+218.075L402.643+218.075C402.22+217.345+402.468+216.41+403.197+215.987Z" opacity="1" fill="#d68050"/>
<path d="M403.558+215.296L404.34+215.296C405.276+215.296+406.035+216.171+406.035+217.25L406.035+217.25C406.035+218.329+405.276+219.204+404.34+219.204L403.558+219.204C402.622+219.204+401.863+218.329+401.863+217.25L401.863+217.25C401.863+216.171+402.622+215.296+403.558+215.296Z" opacity="1" fill="#c15e64"/>
<path stroke="#726b64" stroke-width="1" d="M40.8722+52.4337L40.939+85.1081L44.6178+1906.16" fill="none" stroke-linecap="round" opacity="1" stroke-linejoin="round"/>
<path stroke="#b29371" stroke-width="1" d="M13.3304+1912.88L80.0925+1890.8L94.6902+1934.95L27.9281+1957.02L13.3304+1912.88Z" fill="#ece3ba" stroke-linecap="round" opacity="1" stroke-linejoin="round"/>
<path d="M47.7188+1927.47C47.4769+1927.3+47.1658+1927.38+47+1927.62C40.3717+1937.3+33.755+1946.98+27.125+1956.66C26.968+1956.89+27.021+1957.19+27.25+1957.34C27.479+1957.5+27.8118+1957.45+27.9688+1957.22C34.6019+1947.55+41.2402+1937.89+47.875+1928.22C48.0408+1927.98+47.9606+1927.63+47.7188+1927.47Z" opacity="1" fill="#b29371"/>
<path d="M62.7812+1922.97C62.52+1922.87+62.2502+1923.02+62.1562+1923.28C62.0623+1923.54+62.1762+1923.81+62.4375+1923.91C72.7911+1927.63+83.147+1931.4+93.5+1935.12C93.7759+1935.22+94.0882+1935.06+94.1875+1934.78C94.2867+1934.51+94.1509+1934.22+93.875+1934.12C83.5194+1930.4+73.1362+1926.69+62.7812+1922.97Z" opacity="1" fill="#b29371"/>
<path d="M80.375+1890.5C80.1187+1890.36+79.7674+1890.43+79.625+1890.69C76.3224+1896.63+73.0214+1902.59+69.7188+1908.53C67.8316+1911.93+65.9488+1915.32+64.0625+1918.72C63.1194+1920.42+62.1929+1922.11+61.25+1923.81C60.5428+1925.09+59.8322+1926.38+59.125+1927.66C58.8893+1928.08+58.642+1928.48+58.4062+1928.91C58.1705+1929.33+57.9545+1929.76+57.7188+1930.19C57.5921+1930.42+57.4224+1930.91+57.1875+1931.03C57.0535+1931.1+56.6682+1930.84+56.5312+1930.78C56.114+1930.61+55.6985+1930.43+55.2812+1930.25C54.8871+1930.08+54.4878+1929.92+54.0938+1929.75C53.6996+1929.58+53.3316+1929.42+52.9375+1929.25C51.7552+1928.75+50.5573+1928.25+49.375+1927.75C47.2612+1926.86+45.1451+1925.98+43.0312+1925.09C39.1619+1923.46+35.3064+1921.82+31.4375+1920.19C25.5052+1917.69+19.5569+1915.19+13.625+1912.69C13.3692+1912.58+13.0767+1912.71+12.9688+1912.97C12.8608+1913.22+12.9942+1913.52+13.25+1913.62C19.6607+1916.33+26.0586+1919.01+32.4688+1921.72C36.4309+1923.39+40.3821+1925.08+44.3438+1926.75C46.2775+1927.57+48.2225+1928.37+50.1562+1929.19C51.338+1929.69+52.537+1930.19+53.7188+1930.69C54.1127+1930.85+54.4811+1931.02+54.875+1931.19C55.2689+1931.35+55.6686+1931.52+56.0625+1931.69C56.5642+1931.9+57.1108+1932.23+57.6562+1931.97C58.1528+1931.73+58.3719+1931.14+58.625+1930.69C58.8612+1930.26+59.0763+1929.86+59.3125+1929.44C59.5487+1929.01+59.7951+1928.58+60.0312+1928.16C60.2674+1927.73+60.5138+1927.3+60.75+1926.88C61.2224+1926.03+61.6839+1925.19+62.1562+1924.34C63.3371+1922.22+64.5069+1920.09+65.6875+1917.97C67.5765+1914.57+69.4869+1911.18+71.375+1907.78C74.4431+1902.26+77.4944+1896.74+80.5625+1891.22C80.7049+1890.96+80.6313+1890.64+80.375+1890.5Z" opacity="1" fill="#b29371"/>
</g>
<g id="Layer 2" vectornator:layerName="Layer 2">
<g opacity="1">
<path d="M40.6494+1966.46L38.3573+1958.61C38.2971+1958.4+38.2593+1958.25+38.244+1958.14C38.2287+1958.04+38.234+1957.92+38.2601+1957.77C38.3149+1957.5+38.5797+1957.29+39.0545+1957.15C39.5293+1957.01+39.8673+1956.98+40.0684+1957.05C40.2694+1957.12+40.4174+1957.27+40.5123+1957.5C40.7167+1956.93+41.184+1956.54+41.9141+1956.33C42.6443+1956.12+43.4371+1956.26+44.2926+1956.76C45.1481+1957.26+45.7093+1957.96+45.9762+1958.88C46.2431+1959.79+46.1525+1960.69+45.7044+1961.57C45.2564+1962.45+44.665+1962.99+43.9304+1963.21C43.1958+1963.42+42.6025+1963.37+42.1507+1963.06L42.9435+1965.77C43.0037+1965.98+43.0414+1966.13+43.0568+1966.23C43.0721+1966.34+43.0652+1966.46+43.0359+1966.61C43.0067+1966.76+42.9193+1966.89+42.7737+1966.99C42.6281+1967.09+42.4165+1967.18+42.1388+1967.26C41.861+1967.34+41.6314+1967.38+41.45+1967.37C41.2686+1967.37+41.1259+1967.31+41.0221+1967.21C40.9183+1967.1+40.8453+1967+40.803+1966.91C40.7608+1966.81+40.7096+1966.66+40.6494+1966.46ZM41.4616+1959.35C41.3262+1959.65+41.3004+1959.94+41.3841+1960.23C41.4679+1960.52+41.6497+1960.75+41.9295+1960.93C42.2094+1961.1+42.5129+1961.14+42.8399+1961.05C43.1669+1960.95+43.4106+1960.75+43.571+1960.45C43.7314+1960.15+43.7685+1959.86+43.6821+1959.56C43.5958+1959.26+43.4104+1959.03+43.1261+1958.85C42.8417+1958.68+42.5271+1958.64+42.1821+1958.74C41.8372+1958.84+41.5971+1959.05+41.4616+1959.35Z" opacity="1" fill="#104873"/>
<path d="M50.6756+1953.84C50.8615+1953.85+51.0294+1953.9+51.1793+1953.99C51.3293+1954.09+51.4461+1954.28+51.5298+1954.57C51.6136+1954.86+51.62+1955.2+51.5492+1955.59C51.4784+1955.98+51.2818+1956.22+50.9593+1956.31C50.798+1956.36+50.633+1956.37+50.4642+1956.34C50.2955+1956.31+50.0901+1956.33+49.8482+1956.4C49.6064+1956.47+49.405+1956.62+49.2442+1956.86C49.0834+1957.09+49.0383+1957.33+49.1089+1957.57L49.9331+1960.39C49.9933+1960.6+50.0317+1960.75+50.0484+1960.86C50.065+1960.97+50.0572+1961.1+50.0247+1961.25C49.9584+1961.52+49.643+1961.74+49.0786+1961.91C48.6485+1962.03+48.3172+1962.05+48.0846+1961.95C47.9046+1961.87+47.7677+1961.7+47.6739+1961.44C47.6478+1961.35+47.6098+1961.22+47.5601+1961.05L46.1825+1956.34C46.1223+1956.13+46.0839+1955.97+46.0672+1955.87C46.0506+1955.76+46.0553+1955.63+46.0814+1955.49C46.1361+1955.21+46.4502+1954.99+47.0236+1954.82C47.5611+1954.66+47.9272+1954.67+48.1218+1954.84C48.2622+1954.95+48.3546+1955.08+48.3991+1955.24C48.4256+1955.16+48.4683+1955.07+48.5272+1954.95C48.5862+1954.84+48.7323+1954.66+48.9655+1954.43C49.1988+1954.2+49.4207+1954.05+49.6312+1953.99C49.8417+1953.93+50.022+1953.89+50.1718+1953.87C50.3217+1953.85+50.4896+1953.84+50.6756+1953.84Z" opacity="1" fill="#104873"/>
<path d="M59.5981+1954.08C59.7577+1954.63+59.7395+1955.07+59.5435+1955.42C59.3474+1955.76+59.0836+1955.98+58.7521+1956.08L55.5672+1957.01C55.6405+1957.26+55.8498+1957.43+56.1951+1957.51C56.5405+1957.59+56.861+1957.59+57.1567+1957.51C57.6763+1957.35+58.0682+1957.18+58.3325+1956.99L58.4646+1956.89C58.6508+1956.73+58.8156+1956.63+58.959+1956.59C59.2456+1956.5+59.5509+1956.63+59.8747+1956.98C60.0618+1957.18+60.1802+1957.37+60.2299+1957.54C60.4628+1958.34+59.6251+1959.02+57.7168+1959.57C57.0539+1959.77+56.4315+1959.83+55.8496+1959.75C55.2677+1959.67+54.7785+1959.48+54.3819+1959.19C53.6055+1958.63+53.0865+1957.9+52.8249+1957.01C52.4952+1955.88+52.5966+1954.87+53.1292+1953.98C53.6619+1953.09+54.4747+1952.48+55.5677+1952.17C56.813+1951.8+57.855+1951.97+58.6938+1952.68C59.1344+1953.06+59.4359+1953.53+59.5981+1954.08ZM56.8764+1955.3C57.2169+1955.2+57.3452+1955.01+57.2615+1954.72C57.2013+1954.51+57.0745+1954.37+56.8811+1954.29C56.6877+1954.21+56.4454+1954.21+56.1542+1954.3C55.863+1954.38+55.6088+1954.59+55.3914+1954.91C55.1741+1955.23+55.1046+1955.52+55.1831+1955.79L56.8764+1955.3Z" opacity="1" fill="#104873"/>
<path d="M61.6204+1957.56C61.4188+1957.5+61.284+1957.36+61.216+1957.12C61.1479+1956.89+61.2148+1956.49+61.4166+1955.91C61.4706+1955.73+61.6074+1955.61+61.8269+1955.54C62.0464+1955.48+62.3763+1955.5+62.8167+1955.61C63.2571+1955.72+63.6296+1955.73+63.9342+1955.64C64.4807+1955.48+64.7226+1955.3+64.6598+1955.08C64.6101+1954.91+64.2733+1954.87+63.6495+1954.97C63.0615+1955.05+62.4401+1955.01+61.7852+1954.83C61.4783+1954.74+61.1893+1954.55+60.9184+1954.26C60.6474+1953.96+60.4426+1953.58+60.3039+1953.1C59.8905+1951.69+60.6559+1950.69+62.6+1950.13C63.2361+1949.94+63.9345+1949.9+64.6954+1950.01C65.0509+1950.06+65.26+1950.2+65.3228+1950.41C65.3856+1950.63+65.3642+1950.92+65.2587+1951.29C65.1532+1951.66+64.9974+1951.88+64.7913+1951.94C64.6838+1951.97+64.4649+1951.96+64.1345+1951.91C63.804+1951.86+63.4686+1951.89+63.1282+1951.98C62.5996+1952.14+62.3641+1952.32+62.4216+1952.51C62.5001+1952.78+62.8558+1952.87+63.4885+1952.77C64.0981+1952.66+64.7212+1952.66+65.3578+1952.78C65.6543+1952.83+65.935+1952.98+66.1999+1953.24C66.4649+1953.5+66.6654+1953.86+66.8015+1954.32C66.9376+1954.79+66.966+1955.21+66.8868+1955.59C66.8076+1955.97+66.6348+1956.28+66.3683+1956.54C65.876+1956.98+65.1976+1957.33+64.3331+1957.58C63.4685+1957.84+62.5643+1957.83+61.6204+1957.56Z" opacity="1" fill="#104873"/>
<path d="M68.1919+1955.64C67.9903+1955.58+67.8554+1955.44+67.7874+1955.2C67.7194+1954.97+67.7862+1954.57+67.988+1953.99C68.0421+1953.81+68.1789+1953.69+68.3984+1953.63C68.6179+1953.56+68.9478+1953.58+69.3882+1953.69C69.8286+1953.8+70.2011+1953.81+70.5057+1953.72C71.0522+1953.56+71.294+1953.38+71.2312+1953.16C71.1815+1952.99+70.8448+1952.95+70.2209+1953.05C69.633+1953.13+69.0115+1953.09+68.3567+1952.91C68.0497+1952.82+67.7608+1952.63+67.4898+1952.34C67.2189+1952.04+67.0141+1951.66+66.8754+1951.18C66.462+1949.77+67.2273+1948.77+69.1714+1948.21C69.8075+1948.02+70.506+1947.98+71.2669+1948.09C71.6223+1948.14+71.8315+1948.28+71.8942+1948.49C71.957+1948.71+71.9357+1949+71.8302+1949.37C71.7247+1949.74+71.5689+1949.96+71.3628+1950.02C71.2553+1950.05+71.0363+1950.04+70.7059+1949.99C70.3755+1949.94+70.0401+1949.97+69.6996+1950.07C69.171+1950.22+68.9355+1950.4+68.9931+1950.59C69.0716+1950.86+69.4272+1950.95+70.06+1950.85C70.6696+1950.74+71.2927+1950.74+71.9293+1950.86C72.2257+1950.91+72.5064+1951.06+72.7714+1951.32C73.0364+1951.58+73.2369+1951.94+73.373+1952.41C73.509+1952.87+73.5375+1953.29+73.4583+1953.67C73.3791+1954.05+73.2062+1954.36+72.9398+1954.62C72.4475+1955.06+71.7691+1955.41+70.9045+1955.66C70.04+1955.92+69.1358+1955.91+68.1919+1955.64Z" opacity="1" fill="#104873"/>
<path d="M77.4561+1945.26C77.7596+1945.2+78.0098+1945.23+78.2065+1945.34C78.4033+1945.44+78.5554+1945.68+78.6626+1946.05L78.7215+1946.25C78.7843+1946.46+78.8247+1946.63+78.8427+1946.74C78.8606+1946.85+78.8547+1946.99+78.8249+1947.15C78.7664+1947.45+78.4639+1947.68+77.9174+1947.84C77.3709+1948+76.9841+1948.02+76.7571+1947.89C76.53+1947.76+76.3433+1947.44+76.1967+1946.94C76.1313+1946.72+76.0919+1946.55+76.0784+1946.44C75.9108+1945.63+75.9469+1944.89+76.1865+1944.21C76.4261+1943.53+76.855+1943.1+77.4732+1942.92C77.5359+1942.91+77.6056+1942.94+77.6824+1943.02C77.7591+1943.1+77.8191+1943.21+77.8623+1943.36C77.9054+1943.51+77.9199+1943.63+77.9058+1943.73C77.8916+1943.83+77.8619+1943.9+77.8165+1943.92C77.7712+1943.95+77.7357+1943.97+77.7102+1943.99C77.6846+1944+77.6441+1944.03+77.5887+1944.09C77.5333+1944.15+77.4891+1944.23+77.4563+1944.31C77.3564+1944.54+77.3563+1944.85+77.4561+1945.26Z" opacity="1" fill="#104873"/>
<path d="M80.2451+1948.97C79.9312+1947.89+80.0484+1946.9+80.5969+1945.98C81.1453+1945.06+81.9033+1944.46+82.8709+1944.18C83.8385+1943.89+84.7955+1943.99+85.7419+1944.47C86.6883+1944.95+87.3184+1945.72+87.6324+1946.8C87.8496+1947.54+87.85+1948.26+87.6335+1948.95C87.417+1949.64+87.0732+1950.2+86.602+1950.63C86.1309+1951.07+85.5996+1951.37+85.0083+1951.55C84.417+1951.72+83.8011+1951.74+83.1606+1951.61C82.5201+1951.48+81.9264+1951.19+81.3795+1950.73C80.8326+1950.27+80.4545+1949.69+80.2451+1948.97ZM83.3364+1949.12C83.6859+1949.25+84.0085+1949.27+84.3041+1949.18C84.5998+1949.1+84.8627+1948.9+85.0929+1948.59C85.3232+1948.28+85.3742+1947.9+85.246+1947.46C85.1177+1947.03+84.8834+1946.74+84.5428+1946.61C84.2023+1946.47+83.8708+1946.45+83.5483+1946.55C83.2257+1946.64+82.9583+1946.84+82.746+1947.14C82.5337+1947.45+82.491+1947.82+82.6179+1948.25C82.7448+1948.69+82.9843+1948.98+83.3364+1949.12Z" opacity="1" fill="#104873"/>
<path d="M88.8306+1939.91C89.0274+1940.02+89.1794+1940.26+89.2867+1940.63L89.3495+1940.84C89.4149+1941.06+89.4543+1941.23+89.4678+1941.35C89.6354+1942.15+89.6+1942.9+89.3617+1943.58C89.1233+1944.26+88.6951+1944.69+88.0769+1944.87C88.0142+1944.89+87.9445+1944.86+87.8677+1944.78C87.791+1944.7+87.7304+1944.59+87.6859+1944.43C87.6414+1944.28+87.6269+1944.16+87.6424+1944.06C87.6578+1943.96+87.6882+1943.9+87.7336+1943.87C87.7789+1943.84+87.8144+1943.82+87.8399+1943.81C87.8655+1943.8+87.9082+1943.76+87.9681+1943.7C88.028+1943.64+88.0744+1943.57+88.1072+1943.48C88.1956+1943.25+88.1912+1942.93+88.094+1942.53C87.7763+1942.58+87.5213+1942.55+87.329+1942.44C87.1367+1942.33+86.9686+1942.03+86.8247+1941.53C86.72+1941.18+86.687+1940.9+86.7255+1940.7C86.7641+1940.49+86.8667+1940.34+87.0334+1940.23C87.2+1940.11+87.476+1940+87.8612+1939.89C88.2464+1939.78+88.5696+1939.79+88.8306+1939.91Z" opacity="1" fill="#104873"/>
</g>
</g>
</svg>
