<?xml version="1.0" encoding="UTF-8" standalone="no"?> <!-- Created with Vectornator for iOS (http://vectornator.io/) --><!DOCTYPE svg PUBLIC "-//W3C//DTD SVG 1.1//EN" "http://www.w3.org/Graphics/SVG/1.1/DTD/svg11.dtd">
<svg height="100%" style="fill-rule:nonzero;clip-rule:evenodd;stroke-linecap:round;stroke-linejoin:round;" xmlns:xlink="http://www.w3.org/1999/xlink" xmlns="http://www.w3.org/2000/svg" xml:space="preserve" width="100%" xmlns:vectornator="http://vectornator.io" version="1.1" viewBox="0 0 2400 2400">
<metadata>
<vectornator:setting key="DimensionsVisible" value="1"/>
<vectornator:setting key="PencilOnly" value="0"/>
<vectornator:setting key="SnapToPoints" value="0"/>
<vectornator:setting key="GuidesVisible" value="1"/>
<vectornator:setting key="CMYKEnabledKey" value="0"/>
<vectornator:setting key="RulersVisible" value="1"/>
<vectornator:setting key="SnapToEdges" value="0"/>
<vectornator:setting key="OutlineMode" value="0"/>
<vectornator:setting key="DisplayWhiteBackground" value="0"/>
<vectornator:setting key="doHistoryDisabled" value="0"/>
<vectornator:setting key="SnapToGuides" value="1"/>
<vectornator:setting key="TimeLapseWatermarkDisabled" value="0"/>
<vectornator:setting key="DynamicGuides" value="0"/>
<vectornator:setting key="Units" value="Points"/>
<vectornator:setting key="IsolateActiveLayer" value="0"/>
<vectornator:setting key="SnapToGrid" value="0"/>
</metadata>
<defs>
<path d="M1071.85+1481.96L1069.06+1484.98C1025.88+1531.83+952.886+1534.81+906.034+1491.62L906.034+1491.62C859.181+1448.43+856.209+1375.44+899.396+1328.59L902.183+1325.56C945.37+1278.71+1115.04+1435.11+1071.85+1481.96Z" fill-rule="evenodd" id="Mask"/>
<linearGradient y1="526.232" id="LinearGradient" x1="691.173" y2="564.975" x2="728.615" gradientUnits="userSpaceOnUse" gradientTransform="matrix(4.01218 0 0 4.01218 -2242.02 -4.24374)">
<stop stop-color="#d69350" offset="0"/>
<stop stop-color="#d68050" offset="1"/>
</linearGradient>
<linearGradient y1="485.607" id="LinearGradient_2" x1="726.49" y2="526.836" x2="769.256" gradientUnits="userSpaceOnUse" gradientTransform="matrix(4.01218 0 0 4.01218 -2242.02 -4.24374)">
<stop stop-color="#d69350" offset="0"/>
<stop stop-color="#d68050" offset="1"/>
</linearGradient>
<linearGradient y1="457.148" id="LinearGradient_3" x1="770.312" y2="495.919" x2="814.198" gradientUnits="userSpaceOnUse" gradientTransform="matrix(4.01218 0 0 4.01218 -2242.02 -4.24374)">
<stop stop-color="#d69350" offset="0"/>
<stop stop-color="#d68050" offset="1"/>
</linearGradient>
</defs>
<g id="Layer 1" vectornator:layerName="Layer 1">
<g opacity="1">
<path d="M1387.66+109.424C1383.16+106.52+1378.53+104.683+1373.91+104.522C1366.99+104.279+1348.16+139.978+1348.16+139.978C1348.16+139.978+1326.44+129.921+1320.97+137.219C1297.78+168.143+1298.47+209.126+1298.47+209.126C1298.47+209.126+1227.78+222.069+1226.7+262.223C1226.7+262.223+1231.14+324.877+1238.75+409.164C1222.02+388.821+1189+400.676+1189+400.676C1189+400.676+1139.95+345.319+1119.23+359.092C1115.35+361.673+1115.4+393.291+1115.4+393.291C1115.4+393.291+1100.56+395.127+1099.67+402.276C1095.9+432.566+1108.11+460.334+1108.11+460.334C1108.11+460.334+1072.98+497.109+1084.08+524.924C1084.08+524.924+1266.08+888.665+1334.76+940.027C1340.06+946.735+1345.42+951.306+1351.07+951.504C1353.87+951.602+1356.71+950.579+1359.51+949.008C1357.42+977.288+1359.78+997.78+1369.82+1004.57C1377.58+1009.81+1389.55+1006.54+1403.98+997.91C1403.99+999.085+1403.83+1000.27+1404.3+1001.4C1428.27+1059.27+2052.45+1041.03+2052.45+1041.03C2094.7+1036.48+2086.99+985.205+2086.99+985.205C2086.99+985.205+2164.16+947.861+2152.94+920.768C2150.84+915.691+2113.39+905.936+2113.39+905.936C2113.39+905.936+2114.85+888.962+2106.63+885.808C2071.82+872.447+2036.2+877.721+2036.2+877.721C2036.2+877.721+2003.64+831.629+1969.52+831.657C2035.72+804.26+2089.27+780.579+2089.27+780.579C2112.81+765.072+2039.18+727.158+2039.18+727.158C2039.18+727.158+2043.55+676.182+1999.63+658.143C1991.39+654.762+1952.16+657.811+1952.16+657.811C1952.16+657.811+1930.69+644.071+1920.74+643.925C1918.39+643.89+1916.9+644.262+1914.7+644.314C1914.63+644.268+1913.61+643.534+1913.61+643.534C1913.61+643.534+1908.07+560.007+1855.62+533.573C1845.79+528.619+1802.88+536.161+1802.88+536.161C1802.88+536.161+1793.31+528.994+1783.24+523.077C1786.57+518.051+1799.32+499.036+1799.32+499.036C1820.74+457.913+1768.82+405.813+1768.82+405.813C1768.82+405.814+1781.2+297.502+1749.41+276.019C1743.46+271.993+1711.76+292.631+1711.76+292.631C1711.76+292.631+1697.06+272.084+1689.17+275.456C1655.75+289.746+1638.87+326.004+1638.87+326.004C1638.87+326.004+1571.63+298.321+1553.63+332.87C1553.63+332.87+1514.9+429.491+1472.04+548.992C1496.25+402.954+1512.5+272.269+1512.5+272.269C1513.79+224.476+1446.2+207.596+1446.2+207.596C1446.2+207.596+1419.15+129.751+1387.66+109.424Z" fill-rule="evenodd" fill="#98c97b" opacity="1"/>
<path d="" opacity="1" fill="none"/>
</g>
<g opacity="1">
<path d="M1392.9+529.734C1390.47+528.153+1387.97+527.152+1385.47+527.064C1381.72+526.932+1371.54+546.377+1371.54+546.377C1371.54+546.377+1359.79+540.899+1356.83+544.875C1344.28+561.719+1344.65+584.042+1344.65+584.042C1344.65+584.042+1306.41+591.092+1305.83+612.964C1305.83+612.964+1308.22+647.092+1312.34+693.003C1303.29+681.922+1285.43+688.379+1285.43+688.379C1285.43+688.379+1258.89+658.227+1247.68+665.729C1245.58+667.135+1245.61+684.357+1245.61+684.357C1245.61+684.357+1237.58+685.357+1237.1+689.251C1235.06+705.75+1241.67+720.875+1241.67+720.875C1241.67+720.875+1222.66+740.907+1228.67+756.058C1228.67+756.058+1327.13+954.188+1364.29+982.165C1367.15+985.818+1370.05+988.308+1373.11+988.416C1374.63+988.469+1376.16+987.912+1377.68+987.057C1376.55+1002.46+1377.82+1013.62+1383.26+1017.32C1387.45+1020.17+1393.93+1018.39+1401.74+1013.69C1401.74+1014.33+1401.66+1014.98+1401.91+1015.6C1414.88+1047.12+1752.57+1037.18+1752.57+1037.18C1775.43+1034.7+1771.25+1006.77+1771.25+1006.77C1771.25+1006.77+1813.01+986.432+1806.94+971.674C1805.8+968.908+1785.54+963.595+1785.54+963.595C1785.54+963.595+1786.33+954.349+1781.88+952.631C1763.05+945.353+1743.78+948.226+1743.78+948.226C1743.78+948.226+1726.16+923.12+1707.71+923.135C1743.52+908.212+1772.49+895.313+1772.49+895.313C1785.23+886.866+1745.39+866.214+1745.39+866.214C1745.39+866.214+1747.76+838.448+1723.99+828.622C1719.54+826.781+1698.31+828.441+1698.31+828.441C1698.31+828.441+1686.7+820.957+1681.31+820.877C1680.04+820.859+1679.23+821.061+1678.04+821.089C1678.01+821.064+1677.45+820.664+1677.45+820.664C1677.45+820.664+1674.46+775.167+1646.08+760.769C1640.77+758.07+1617.55+762.178+1617.55+762.178C1617.55+762.178+1612.37+758.275+1606.92+755.052C1608.73+752.314+1615.62+741.956+1615.62+741.956C1627.21+719.557+1599.12+691.178+1599.12+691.178C1599.12+691.178+1605.82+632.18+1588.62+620.479C1585.4+618.286+1568.25+629.527+1568.25+629.527C1568.25+629.527+1560.3+618.336+1556.03+620.172C1537.95+627.956+1528.82+647.706+1528.82+647.706C1528.82+647.706+1492.44+632.627+1482.7+651.446C1482.7+651.446+1461.74+704.075+1438.56+769.167C1451.66+689.62+1460.45+618.436+1460.45+618.436C1461.15+592.403+1424.58+583.209+1424.58+583.209C1424.58+583.209+1409.94+540.807+1392.9+529.734Z" fill-rule="evenodd" fill="#84b468" opacity="1"/>
<path d="" opacity="1" fill="none"/>
</g>
<g opacity="1">
<path d="M1440.7+820.822L1457.93+830.173C1698.25+960.569+1787.35+1261.09+1656.96+1501.4L1656.96+1501.4C1526.56+1741.71+511.043+2483.29+361.211+2315.1C193.303+2126.61+639.078+1260.16+769.474+1019.84L769.474+1019.84C899.87+779.531+1200.39+690.426+1440.7+820.822Z" fill-rule="evenodd" fill="#e0a163" opacity="1"/>
<path d="" fill-rule="evenodd" fill="#000000" opacity="1"/>
</g>
<path d="M1521.09+1477.78C1842.52+1114.48+1457.93+830.173+1457.93+830.173C1574.66+893.51+1655.71+996.983+1693.26+1114.2C1733.02+1238.3+1724.02+1377.81+1656.96+1501.4L1656.96+1501.4C1526.56+1741.71+511.043+2483.29+361.211+2315.1C346.935+2299.07+749.815+2349.53+1521.09+1477.78Z" fill-rule="evenodd" fill="#d68050" opacity="1"/>
<g opacity="1" vectornator:mask="#Mask">
<use xlink:href="#Mask" fill="#c15e64" stroke="none"/>
<clipPath id="ClipPath">
<use xlink:href="#Mask" fill="none" overflow="visible"/>
</clipPath>
<g clip-path="url(#ClipPath)">
<g opacity="1">
<path d="M1063.22+1383.73L1063.22+1383.73C1067.84+1390.28+1067+1399.91+1061.34+1405.25L1048.21+1417.62C1042.55+1422.95+1034.22+1421.97+1029.6+1415.42L1029.6+1415.42C1024.99+1408.88+1025.83+1399.24+1031.49+1393.91L1044.61+1381.54C1050.27+1376.2+1058.61+1377.18+1063.22+1383.73Z" fill-rule="evenodd" fill="#fadedf" opacity="1"/>
<path d="" fill-rule="evenodd" fill="#000000" opacity="1"/>
</g>
<g opacity="1">
<path d="M894.291+1385.38L894.291+1385.38C938.382+1380.78+988.268+1415.41+1005.71+1462.73L1007.19+1466.73C1024.64+1514.04+1003.04+1556.12+958.944+1560.72L958.944+1560.72C914.852+1565.32+864.967+1530.7+847.521+1483.38L846.045+1479.38C828.599+1432.07+850.199+1389.98+894.291+1385.38Z" fill-rule="evenodd" fill="#ebadb0" opacity="1"/>
<path d="" fill-rule="evenodd" fill="#000000" opacity="1"/>
</g>
</g>
</g>
<path d="M629.935+2255.67C629.935+2255.67+464.239+2081.07+459.017+2036.33C453.795+1991.6+688.662+2220.77+688.662+2220.77L629.935+2255.67Z" fill-rule="evenodd" fill="url(#LinearGradient)" opacity="1"/>
<path d="M834.084+2136.85C834.084+2136.85+580.772+1874.51+601.215+1870.01C621.657+1865.52+890.561+2114.83+890.561+2114.83L834.084+2136.85Z" fill-rule="evenodd" fill="url(#LinearGradient_2)" opacity="1"/>
<path d="M1017.27+2018.24C1017.27+2018.24+706.416+1720.28+734.069+1721.9C761.721+1723.52+1059.66+1970.15+1059.66+1970.15L1017.27+2018.24Z" fill-rule="evenodd" fill="url(#LinearGradient_3)" opacity="1"/>
<path d="M1224.47+1267.78C1222.31+1267.62+1220.18+1267.74+1218.25+1268.69C1217.42+1269.1+1216.59+1269.56+1215.88+1270.16C1215.02+1270.87+1214.22+1271.67+1213.59+1272.59C1212.94+1273.54+1212.46+1274.6+1212.09+1275.69C1211.78+1276.64+1211.63+1277.66+1211.56+1278.66C1211.51+1279.44+1211.61+1280.23+1211.72+1281C1212.21+1284.5+1214.92+1287.43+1216.97+1290.16C1218.04+1291.58+1219.11+1292.98+1220.19+1294.41C1221.47+1296.1+1222.75+1297.8+1224.03+1299.5C1225.72+1301.74+1227.38+1303.98+1229.06+1306.22C1231.27+1309.15+1233.51+1312.07+1235.72+1315C1264.9+1353.69+1294.15+1392.31+1323.41+1430.94C1327.27+1436.03+1334.53+1437.02+1339.62+1433.16C1344.72+1429.29+1345.71+1422.03+1341.84+1416.94C1317.42+1384.78+1293.03+1352.62+1268.56+1320.5C1261.88+1311.73+1255.19+1302.96+1248.5+1294.19C1261.35+1296.12+1274.18+1298.06+1287.03+1300C1329.49+1306.4+1371.93+1312.9+1414.38+1319.41C1420.36+1320.33+1425.96+1316.23+1426.88+1310.25C1427.79+1304.27+1423.7+1298.67+1417.72+1297.75C1367.09+1289.96+1316.48+1282.14+1265.88+1274.22C1254.19+1272.39+1242.5+1270.55+1230.81+1268.72C1228.81+1268.41+1226.62+1267.95+1224.47+1267.78Z" opacity="1" fill="#726b64"/>
<path d="M942.062+1001.06C940.582+1001.33+939.153+1001.88+937.812+1002.75C932.452+1006.23+930.926+1013.39+934.406+1018.75C956.416+1052.6+978.41+1086.46+1000.47+1120.28C1006.5+1129.52+1012.53+1138.76+1018.56+1148C1006.26+1145.22+993.96+1142.44+981.656+1139.66C939.404+1130.09+897.165+1120.39+854.938+1110.72C849.039+1109.37+843.165+1113.07+841.812+1118.97C840.46+1124.87+844.133+1130.74+850.031+1132.09C900.697+1143.73+951.364+1155.39+1002+1167.16C1005.97+1168.08+1009.93+1169.01+1013.91+1169.94C1016.88+1170.63+1019.87+1171.31+1022.84+1172C1025.33+1172.58+1027.83+1173.17+1030.31+1173.75C1032.3+1174.21+1034.26+1174.66+1036.25+1175.12C1039.32+1175.84+1042.5+1176.86+1045.66+1175.97C1046.4+1175.76+1047.16+1175.51+1047.84+1175.16C1048.72+1174.7+1049.57+1174.19+1050.31+1173.53C1051.17+1172.76+1051.95+1171.91+1052.56+1170.94C1053.16+1169.99+1053.59+1168.92+1053.91+1167.84C1054.17+1166.94+1054.24+1165.97+1054.28+1165.03C1054.47+1160.7+1051.2+1156.64+1048.97+1153.19C1048.01+1151.71+1047.05+1150.23+1046.09+1148.75C1044.95+1146.98+1043.8+1145.21+1042.66+1143.44C1041.16+1141.11+1039.66+1138.79+1038.16+1136.47C1036.19+1133.42+1034.22+1130.37+1032.25+1127.31C1006.16+1086.89+979.984+1046.52+953.812+1006.16C951.202+1002.14+946.503+1000.27+942.062+1001.06Z" opacity="1" fill="#726b64"/>
</g>
</svg>
