<?xml version="1.0" encoding="UTF-8" standalone="no"?> <!-- Created with Vectornator for iOS (http://vectornator.io/) --><!DOCTYPE svg PUBLIC "-//W3C//DTD SVG 1.1//EN" "http://www.w3.org/Graphics/SVG/1.1/DTD/svg11.dtd">
<svg height="100%" style="fill-rule:nonzero;clip-rule:evenodd;stroke-linecap:round;stroke-linejoin:round;" xmlns:xlink="http://www.w3.org/1999/xlink" xmlns="http://www.w3.org/2000/svg" xml:space="preserve" width="100%" xmlns:vectornator="http://vectornator.io" version="1.1" viewBox="0 0 1280 720">
<metadata>
<vectornator:setting key="DimensionsVisible" value="1"/>
<vectornator:setting key="PencilOnly" value="0"/>
<vectornator:setting key="SnapToPoints" value="0"/>
<vectornator:setting key="GuidesVisible" value="1"/>
<vectornator:setting key="OutlineMode" value="0"/>
<vectornator:setting key="RulersVisible" value="1"/>
<vectornator:setting key="SnapToEdges" value="0"/>
<vectornator:setting key="CMYKEnabledKey" value="0"/>
<vectornator:setting key="DisplayWhiteBackground" value="0"/>
<vectornator:setting key="doHistoryDisabled" value="0"/>
<vectornator:setting key="TimeLapseWatermarkDisabled" value="0"/>
<vectornator:setting key="SnapToGuides" value="1"/>
<vectornator:setting key="Units" value="Pixels"/>
<vectornator:setting key="IsolateActiveLayer" value="0"/>
<vectornator:setting key="SnapToGrid" value="0"/>
<vectornator:setting key="DynamicGuides" value="0"/>
</metadata>
<defs>
<linearGradient y1="632.996" id="LinearGradient" x1="-49.6841" y2="632.996" x2="1307.85" gradientUnits="userSpaceOnUse" gradientTransform="matrix(1 0 0 1 0 0)">
<stop stop-color="#addbe1" offset="0"/>
<stop stop-color="#98c9ff" offset="0.993697"/>
</linearGradient>
</defs>
<g id="Layer 2" vectornator:layerName="Layer 2">
<path d="M-49.6841+482.919L1307.85+482.919L1307.85+783.073L-49.6841+783.073L-49.6841+482.919Z" opacity="0" fill="url(#LinearGradient)"/>
<path d="M-2.40874-3.43583L1285.85-3.43583L1285.85+478.015L-2.40874+478.015L-2.40874-3.43583Z" opacity="1" fill="#defafe"/>
</g>
<g id="Layer 1" vectornator:layerName="Layer 1">
<path d="M43.6374+425.351L43.6374+425.351C71.2339+425.351+93.6054+444.122+93.6054+467.277L93.6054+472.808C93.6054+495.962+71.2339+514.733+43.6374+514.733L43.6374+514.733C16.0408+514.733-6.33063+495.962-6.33063+472.808L-6.33063+467.277C-6.33063+444.122+16.0408+425.351+43.6374+425.351Z" opacity="1" fill="#defafe"/>
<path d="M434.584+425.351L434.584+425.351C462.18+425.351+484.552+444.122+484.552+467.277L484.552+472.808C484.552+495.962+462.18+514.733+434.584+514.733L434.584+514.733C406.987+514.733+384.616+495.962+384.616+472.808L384.616+467.277C384.616+444.122+406.987+425.351+434.584+425.351Z" opacity="1" fill="#defafe"/>
<path d="M831.538+425.351L831.538+425.351C859.134+425.351+881.506+444.122+881.506+467.277L881.506+472.808C881.506+495.962+859.134+514.733+831.538+514.733L831.538+514.733C803.941+514.733+781.57+495.962+781.57+472.808L781.57+467.277C781.57+444.122+803.941+425.351+831.538+425.351Z" opacity="1" fill="#defafe"/>
<path d="M1226.21+425.351L1226.21+425.351C1253.81+425.351+1276.18+444.122+1276.18+467.277L1276.18+472.808C1276.18+495.962+1253.81+514.733+1226.21+514.733L1226.21+514.733C1198.62+514.733+1176.24+495.962+1176.24+472.808L1176.24+467.277C1176.24+444.122+1198.62+425.351+1226.21+425.351Z" opacity="1" fill="#defafe"/>
<path d="M241.511+425.351L241.511+425.351C269.108+425.351+291.479+444.122+291.479+467.277L291.479+472.808C291.479+495.962+269.108+514.733+241.511+514.733L241.511+514.733C213.915+514.733+191.543+495.962+191.543+472.808L191.543+467.277C191.543+444.122+213.915+425.351+241.511+425.351Z" opacity="1" fill="#defafe"/>
<path d="M632.457+425.351L632.457+425.351C660.054+425.351+682.425+444.122+682.425+467.277L682.425+472.808C682.425+495.962+660.054+514.733+632.457+514.733L632.457+514.733C604.861+514.733+582.489+495.962+582.489+472.808L582.489+467.277C582.489+444.122+604.861+425.351+632.457+425.351Z" opacity="1" fill="#defafe"/>
<path d="M1029.41+425.351L1029.41+425.351C1057.01+425.351+1079.38+444.122+1079.38+467.277L1079.38+472.808C1079.38+495.962+1057.01+514.733+1029.41+514.733L1029.41+514.733C1001.81+514.733+979.443+495.962+979.443+472.808L979.443+467.277C979.443+444.122+1001.81+425.351+1029.41+425.351Z" opacity="1" fill="#defafe"/>
<path d="M1424.09+425.351L1424.09+425.351C1451.68+425.351+1474.05+444.122+1474.05+467.277L1474.05+472.808C1474.05+495.962+1451.68+514.733+1424.09+514.733L1424.09+514.733C1396.49+514.733+1374.12+495.962+1374.12+472.808L1374.12+467.277C1374.12+444.122+1396.49+425.351+1424.09+425.351Z" opacity="1" fill="#defafe"/>
<path d="M143.463+425.351L143.463+425.351C171.059+425.351+193.431+444.122+193.431+467.277L193.431+472.808C193.431+495.962+171.059+514.733+143.463+514.733L143.463+514.733C115.866+514.733+93.4948+495.962+93.4948+472.808L93.4948+467.277C93.4948+444.122+115.866+425.351+143.463+425.351Z" opacity="1" fill="#defafe"/>
<path d="M534.409+425.351L534.409+425.351C562.006+425.351+584.377+444.122+584.377+467.277L584.377+472.808C584.377+495.962+562.006+514.733+534.409+514.733L534.409+514.733C506.812+514.733+484.441+495.962+484.441+472.808L484.441+467.277C484.441+444.122+506.812+425.351+534.409+425.351Z" opacity="1" fill="#defafe"/>
<path d="M931.363+425.351L931.363+425.351C958.96+425.351+981.331+444.122+981.331+467.277L981.331+472.808C981.331+495.962+958.96+514.733+931.363+514.733L931.363+514.733C903.767+514.733+881.395+495.962+881.395+472.808L881.395+467.277C881.395+444.122+903.767+425.351+931.363+425.351Z" opacity="1" fill="#defafe"/>
<path d="M1326.04+425.351L1326.04+425.351C1353.63+425.351+1376.01+444.122+1376.01+467.277L1376.01+472.808C1376.01+495.962+1353.63+514.733+1326.04+514.733L1326.04+514.733C1298.44+514.733+1276.07+495.962+1276.07+472.808L1276.07+467.277C1276.07+444.122+1298.44+425.351+1326.04+425.351Z" opacity="1" fill="#defafe"/>
<path d="M341.337+425.351L341.337+425.351C368.933+425.351+391.305+444.122+391.305+467.277L391.305+472.808C391.305+495.962+368.933+514.733+341.337+514.733L341.337+514.733C313.74+514.733+291.369+495.962+291.369+472.808L291.369+467.277C291.369+444.122+313.74+425.351+341.337+425.351Z" opacity="1" fill="#defafe"/>
<path d="M732.283+425.351L732.283+425.351C759.879+425.351+782.251+444.122+782.251+467.277L782.251+472.808C782.251+495.962+759.879+514.733+732.283+514.733L732.283+514.733C704.686+514.733+682.315+495.962+682.315+472.808L682.315+467.277C682.315+444.122+704.686+425.351+732.283+425.351Z" opacity="1" fill="#defafe"/>
<path d="M1129.24+425.351L1129.24+425.351C1156.83+425.351+1179.2+444.122+1179.2+467.277L1179.2+472.808C1179.2+495.962+1156.83+514.733+1129.24+514.733L1129.24+514.733C1101.64+514.733+1079.27+495.962+1079.27+472.808L1079.27+467.277C1079.27+444.122+1101.64+425.351+1129.24+425.351Z" opacity="1" fill="#defafe"/>
<path d="M1523.91+425.351L1523.91+425.351C1551.51+425.351+1573.88+444.122+1573.88+467.277L1573.88+472.808C1573.88+495.962+1551.51+514.733+1523.91+514.733L1523.91+514.733C1496.31+514.733+1473.94+495.962+1473.94+472.808L1473.94+467.277C1473.94+444.122+1496.31+425.351+1523.91+425.351Z" opacity="1" fill="#defafe"/>
</g>
</svg>
